<svg width="1040" height="1040" viewBox="0 0 1040 1040" fill="none" xmlns="http://www.w3.org/2000/svg">
<path d="M6 25C6 14.5066 14.5066 6 25 6H518V520H6V25Z" stroke="#D5D6D8" stroke-width="12"/>
<path d="M192.041 377H163.033L246.934 148.504H275.496L359.397 377H330.388L262.107 184.653H260.322L192.041 377ZM202.752 287.744H319.678V312.289H202.752V287.744Z" fill="#ACACAC"/>
<path d="M518 6H1011C1021.49 6 1030 14.5066 1030 25V520H518V6Z" stroke="#D5D6D8" stroke-width="12"/>
<path d="M698.669 377V148.504H778.554C794.471 148.504 807.599 151.256 817.938 156.76C828.277 162.19 835.975 169.517 841.033 178.74C846.091 187.888 848.62 198.041 848.62 209.198C848.62 219.017 846.872 227.124 843.376 233.521C839.955 239.917 835.417 244.975 829.764 248.694C824.186 252.413 818.124 255.165 811.579 256.95V259.182C818.57 259.628 825.599 262.083 832.665 266.545C839.731 271.008 845.645 277.405 850.405 285.736C855.165 294.066 857.545 304.256 857.545 316.306C857.545 327.76 854.942 338.062 849.736 347.211C844.529 356.36 836.31 363.612 825.079 368.967C813.847 374.322 799.231 377 781.231 377H698.669ZM726.339 352.455H781.231C799.306 352.455 812.136 348.959 819.723 341.967C827.384 334.901 831.215 326.347 831.215 316.306C831.215 308.57 829.244 301.43 825.302 294.884C821.36 288.264 815.744 282.983 808.455 279.041C801.165 275.025 792.537 273.017 782.57 273.017H726.339V352.455ZM726.339 248.917H777.661C785.992 248.917 793.504 247.281 800.198 244.008C806.967 240.736 812.322 236.124 816.264 230.174C820.281 224.223 822.289 217.231 822.289 209.198C822.289 199.157 818.793 190.64 811.802 183.649C804.81 176.583 793.727 173.05 778.554 173.05H726.339V248.917Z" fill="#ACACAC"/>
<path d="M6 520H518V1034H25C14.5066 1034 6 1025.49 6 1015V520Z" stroke="#D5D6D8" stroke-width="12"/>
<path d="M358.537 733.909H330.868C329.231 725.95 326.368 718.959 322.277 712.934C318.26 706.909 313.351 701.851 307.55 697.76C301.822 693.595 295.463 690.471 288.471 688.388C281.479 686.306 274.19 685.264 266.603 685.264C252.769 685.264 240.236 688.76 229.004 695.752C217.847 702.744 208.959 713.045 202.339 726.657C195.793 740.269 192.521 756.967 192.521 776.752C192.521 796.537 195.793 813.236 202.339 826.847C208.959 840.459 217.847 850.76 229.004 857.752C240.236 864.744 252.769 868.24 266.603 868.24C274.19 868.24 281.479 867.198 288.471 865.116C295.463 863.033 301.822 859.946 307.55 855.855C313.351 851.69 318.26 846.595 322.277 840.57C326.368 834.471 329.231 827.479 330.868 819.595H358.537C356.455 831.273 352.661 841.723 347.157 850.946C341.653 860.169 334.81 868.017 326.628 874.488C318.446 880.884 309.26 885.756 299.07 889.103C288.955 892.45 278.132 894.124 266.603 894.124C247.116 894.124 229.785 889.364 214.612 879.843C199.438 870.322 187.5 856.785 178.798 839.231C170.095 821.678 165.744 800.851 165.744 776.752C165.744 752.653 170.095 731.826 178.798 714.273C187.5 696.719 199.438 683.182 214.612 673.661C229.785 664.14 247.116 659.38 266.603 659.38C278.132 659.38 288.955 661.054 299.07 664.401C309.26 667.748 318.446 672.657 326.628 679.128C334.81 685.525 341.653 693.335 347.157 702.558C352.661 711.707 356.455 722.157 358.537 733.909Z" fill="#ACACAC"/>
<path d="M518 520H1030V1015C1030 1025.49 1021.49 1034 1011 1034H518V520Z" stroke="#D5D6D8" stroke-width="12"/>
<path d="M759.182 891H688.669V662.504H762.306C784.471 662.504 803.438 667.079 819.207 676.227C834.975 685.302 847.062 698.355 855.467 715.388C863.872 732.347 868.074 752.653 868.074 776.306C868.074 800.107 863.835 820.599 855.355 837.781C846.876 854.888 834.529 868.054 818.314 877.277C802.099 886.426 782.388 891 759.182 891ZM716.339 866.455H757.397C776.289 866.455 791.946 862.81 804.368 855.521C816.789 848.231 826.05 837.855 832.149 824.393C838.248 810.93 841.298 794.901 841.298 776.306C841.298 757.859 838.285 741.979 832.26 728.665C826.236 715.277 817.236 705.012 805.26 697.872C793.285 690.657 778.372 687.05 760.521 687.05H716.339V866.455Z" fill="#ACACAC"/>
</svg>
