<svg width="1040" height="1040" viewBox="0 0 1040 1040" fill="none" xmlns="http://www.w3.org/2000/svg">
<path d="M25 6H520V1034H25C14.5066 1034 6 1025.49 6 1015V25C6 14.5066 14.5066 6 25 6Z" stroke="#D5D6D8" stroke-width="12"/>
<path d="M194.041 634H165.033L248.934 405.504H277.496L361.397 634H332.388L264.107 441.653H262.322L194.041 634ZM204.752 544.744H321.678V569.289H204.752V544.744Z" fill="#ACACAC"/>
<path d="M520 6H1015C1025.49 6 1034 14.5066 1034 25V520H520V6Z" stroke="#D5D6D8" stroke-width="12"/>
<path d="M702.669 377V148.504H782.554C798.471 148.504 811.599 151.256 821.938 156.76C832.277 162.19 839.975 169.517 845.033 178.74C850.091 187.888 852.62 198.041 852.62 209.198C852.62 219.017 850.872 227.124 847.376 233.521C843.955 239.917 839.417 244.975 833.764 248.694C828.186 252.413 822.124 255.165 815.579 256.95V259.182C822.57 259.628 829.599 262.083 836.665 266.545C843.731 271.008 849.645 277.405 854.405 285.736C859.165 294.066 861.545 304.256 861.545 316.306C861.545 327.76 858.942 338.062 853.736 347.211C848.529 356.36 840.31 363.612 829.079 368.967C817.847 374.322 803.231 377 785.231 377H702.669ZM730.339 352.455H785.231C803.306 352.455 816.136 348.959 823.723 341.967C831.384 334.901 835.215 326.347 835.215 316.306C835.215 308.57 833.244 301.43 829.302 294.884C825.36 288.264 819.744 282.983 812.455 279.041C805.165 275.025 796.537 273.017 786.57 273.017H730.339V352.455ZM730.339 248.917H781.661C789.992 248.917 797.504 247.281 804.198 244.008C810.967 240.736 816.322 236.124 820.264 230.174C824.281 224.223 826.289 217.231 826.289 209.198C826.289 199.157 822.793 190.64 815.802 183.649C808.81 176.583 797.727 173.05 782.554 173.05H730.339V248.917Z" fill="#ACACAC"/>
<path d="M520 520H1034V1015C1034 1025.49 1025.49 1034 1015 1034H520V520Z" stroke="#D5D6D8" stroke-width="12"/>
<path d="M874.537 733.909H846.868C845.231 725.95 842.368 718.959 838.277 712.934C834.26 706.909 829.351 701.851 823.55 697.76C817.822 693.595 811.463 690.471 804.471 688.388C797.479 686.306 790.19 685.264 782.603 685.264C768.769 685.264 756.236 688.76 745.004 695.752C733.847 702.744 724.959 713.045 718.339 726.657C711.793 740.269 708.521 756.967 708.521 776.752C708.521 796.537 711.793 813.236 718.339 826.847C724.959 840.459 733.847 850.76 745.004 857.752C756.236 864.744 768.769 868.24 782.603 868.24C790.19 868.24 797.479 867.198 804.471 865.116C811.463 863.033 817.822 859.946 823.55 855.855C829.351 851.69 834.26 846.595 838.277 840.57C842.368 834.471 845.231 827.479 846.868 819.595H874.537C872.455 831.273 868.661 841.723 863.157 850.946C857.653 860.169 850.81 868.017 842.628 874.488C834.446 880.884 825.26 885.756 815.07 889.103C804.955 892.45 794.132 894.124 782.603 894.124C763.116 894.124 745.785 889.364 730.612 879.843C715.438 870.322 703.5 856.785 694.798 839.231C686.095 821.678 681.744 800.851 681.744 776.752C681.744 752.653 686.095 731.826 694.798 714.273C703.5 696.719 715.438 683.182 730.612 673.661C745.785 664.14 763.116 659.38 782.603 659.38C794.132 659.38 804.955 661.054 815.07 664.401C825.26 667.748 834.446 672.657 842.628 679.128C850.81 685.525 857.653 693.335 863.157 702.558C868.661 711.707 872.455 722.157 874.537 733.909Z" fill="#ACACAC"/>
</svg>
