<svg width="1040" height="1040" viewBox="0 0 1040 1040" fill="none" xmlns="http://www.w3.org/2000/svg">
<path d="M25 6H1015C1025.49 6 1034 14.5066 1034 25V776H6V25C6 14.5066 14.5066 6 25 6Z" stroke="#D5D6D8" stroke-width="12"/>
<path d="M450.138 506H421.054L505.173 276.909H533.81L617.929 506H588.845L520.386 313.152H518.597L450.138 506ZM460.876 416.511H578.107V441.121H460.876V416.511Z" fill="#ACACAC"/>
<path d="M6 776H1034V1015C1034 1025.49 1025.49 1034 1015 1034H25C14.5066 1034 6 1025.49 6 1015V776Z" stroke="#D5D6D8" stroke-width="12"/>
<path d="M455.614 978V832.545H506.466C516.598 832.545 524.955 834.297 531.537 837.801C538.118 841.258 543.019 845.921 546.239 851.793C549.458 857.616 551.068 864.08 551.068 871.182C551.068 877.432 549.955 882.593 547.73 886.665C545.552 890.737 542.664 893.956 539.065 896.324C535.514 898.691 531.655 900.443 527.489 901.58V903C531.939 903.284 536.414 904.847 540.912 907.688C545.41 910.528 549.174 914.6 552.205 919.903C555.235 925.206 556.75 931.693 556.75 939.364C556.75 946.655 555.093 953.213 551.778 959.037C548.464 964.861 543.232 969.477 536.082 972.886C528.933 976.295 519.629 978 508.17 978H455.614ZM473.227 962.375H508.17C519.676 962.375 527.844 960.15 532.673 955.699C537.55 951.201 539.989 945.756 539.989 939.364C539.989 934.439 538.734 929.894 536.224 925.727C533.715 921.513 530.14 918.152 525.5 915.642C520.86 913.085 515.367 911.807 509.023 911.807H473.227V962.375ZM473.227 896.466H505.898C511.201 896.466 515.983 895.424 520.244 893.341C524.553 891.258 527.962 888.322 530.472 884.534C533.028 880.746 534.307 876.295 534.307 871.182C534.307 864.79 532.081 859.368 527.631 854.918C523.18 850.42 516.125 848.17 506.466 848.17H473.227V896.466Z" fill="#ACACAC"/>
</svg>
