<svg width="1040" height="1040" viewBox="0 0 1040 1040" fill="none" xmlns="http://www.w3.org/2000/svg">
<path d="M6 25C6 14.5066 14.5066 6 25 6H1015C1025.49 6 1034 14.5066 1034 25V348.667H6V25Z" stroke="#D5D6D8" stroke-width="12"/>
<path d="M465.474 268H442.392L509.153 86.1818H531.881L598.642 268H575.56L521.227 114.946H519.807L465.474 268ZM473.997 196.977H567.037V216.509H473.997V196.977Z" fill="#ACACAC"/>
<rect x="6" y="348.667" width="1028" height="342.667" stroke="#D5D6D8" stroke-width="12"/>
<path d="M461.017 610.667V428.848H524.582C537.248 428.848 547.694 431.038 555.921 435.418C564.148 439.739 570.274 445.568 574.298 452.907C578.323 460.187 580.335 468.266 580.335 477.144C580.335 484.956 578.944 491.408 576.163 496.498C573.44 501.588 569.83 505.612 565.332 508.571C560.893 511.531 556.069 513.721 550.861 515.141V516.917C556.424 517.272 562.017 519.225 567.64 522.776C573.263 526.327 577.968 531.417 581.756 538.046C585.544 544.675 587.438 552.783 587.438 562.371C587.438 571.486 585.366 579.683 581.223 586.963C577.08 594.243 570.54 600.013 561.603 604.275C552.666 608.536 541.036 610.667 526.713 610.667H461.017ZM483.034 591.135H526.713C541.095 591.135 551.305 588.354 557.342 582.79C563.438 577.168 566.486 570.361 566.486 562.371C566.486 556.216 564.917 550.534 561.781 545.326C558.644 540.058 554.175 535.856 548.375 532.719C542.575 529.523 535.709 527.925 527.778 527.925H483.034V591.135ZM483.034 508.749H523.872C530.501 508.749 536.479 507.447 541.805 504.843C547.191 502.239 551.453 498.569 554.589 493.834C557.786 489.099 559.384 483.536 559.384 477.144C559.384 469.154 556.602 462.377 551.038 456.814C545.475 451.191 536.656 448.38 524.582 448.38H483.034V508.749Z" fill="#ACACAC"/>
<path d="M6 691.333H1034V1015C1034 1025.49 1025.49 1034 1015 1034H25C14.5066 1034 6 1025.49 6 1015V691.333Z" stroke="#D5D6D8" stroke-width="12"/>
<path d="M597.324 828.333H575.307C574.005 822.001 571.726 816.437 568.471 811.643C565.275 806.849 561.369 802.824 556.752 799.569C552.195 796.255 547.134 793.769 541.571 792.112C536.008 790.455 530.207 789.626 524.17 789.626C513.162 789.626 503.189 792.408 494.252 797.971C485.374 803.535 478.302 811.732 473.034 822.563C467.826 833.394 465.222 846.681 465.222 862.424C465.222 878.168 467.826 891.455 473.034 902.286C478.302 913.117 485.374 921.314 494.252 926.877C503.189 932.441 513.162 935.223 524.17 935.223C530.207 935.223 536.008 934.394 541.571 932.737C547.134 931.08 552.195 928.623 556.752 925.368C561.369 922.054 565.275 918 568.471 913.206C571.726 908.352 574.005 902.789 575.307 896.515H597.324C595.667 905.807 592.648 914.123 588.268 921.462C583.889 928.801 578.444 935.045 571.933 940.194C565.423 945.284 558.113 949.161 550.005 951.824C541.956 954.487 533.344 955.819 524.17 955.819C508.664 955.819 494.874 952.031 482.8 944.456C470.726 936.88 461.227 926.108 454.302 912.14C447.377 898.172 443.915 881.6 443.915 862.424C443.915 843.248 447.377 826.676 454.302 812.708C461.227 798.741 470.726 787.969 482.8 780.393C494.874 772.817 508.664 769.029 524.17 769.029C533.344 769.029 541.956 770.361 550.005 773.024C558.113 775.688 565.423 779.594 571.933 784.743C578.444 789.833 583.889 796.048 588.268 803.387C592.648 810.666 595.667 818.982 597.324 828.333Z" fill="#ACACAC"/>
</svg>
