<svg width="1040" height="1040" viewBox="0 0 1040 1040" fill="none" xmlns="http://www.w3.org/2000/svg">
<path d="M25 6H1015C1025.49 6 1034 14.5066 1034 25V776H6V25C6 14.5066 14.5066 6 25 6Z" stroke="#D5D6D8" stroke-width="12"/>
<path d="M450.138 506H421.054L505.173 276.909H533.81L617.929 506H588.845L520.386 313.152H518.597L450.138 506ZM460.876 416.511H578.107V441.121H460.876V416.511Z" fill="#ACACAC"/>
<path d="M6 776H520V1034H25C14.5066 1034 6 1025.49 6 1015V776Z" stroke="#D5D6D8" stroke-width="12"/>
<path d="M177.614 978V832.545H228.466C238.598 832.545 246.955 834.297 253.537 837.801C260.118 841.258 265.019 845.921 268.239 851.793C271.458 857.616 273.068 864.08 273.068 871.182C273.068 877.432 271.955 882.593 269.73 886.665C267.552 890.737 264.664 893.956 261.065 896.324C257.514 898.691 253.655 900.443 249.489 901.58V903C253.939 903.284 258.414 904.847 262.912 907.688C267.41 910.528 271.174 914.6 274.205 919.903C277.235 925.206 278.75 931.693 278.75 939.364C278.75 946.655 277.093 953.213 273.778 959.037C270.464 964.861 265.232 969.477 258.082 972.886C250.933 976.295 241.629 978 230.17 978H177.614ZM195.227 962.375H230.17C241.676 962.375 249.844 960.15 254.673 955.699C259.55 951.201 261.989 945.756 261.989 939.364C261.989 934.439 260.734 929.894 258.224 925.727C255.715 921.513 252.14 918.152 247.5 915.642C242.86 913.085 237.367 911.807 231.023 911.807H195.227V962.375ZM195.227 896.466H227.898C233.201 896.466 237.983 895.424 242.244 893.341C246.553 891.258 249.962 888.322 252.472 884.534C255.028 880.746 256.307 876.295 256.307 871.182C256.307 864.79 254.081 859.368 249.631 854.918C245.18 850.42 238.125 848.17 228.466 848.17H195.227V896.466Z" fill="#ACACAC"/>
<path d="M520 776H1034V1015C1034 1025.49 1025.49 1034 1015 1034H520V776Z" stroke="#D5D6D8" stroke-width="12"/>
<path d="M838.659 878H821.045C820.004 872.934 818.181 868.483 815.577 864.648C813.02 860.812 809.895 857.593 806.202 854.989C802.556 852.337 798.508 850.348 794.057 849.023C789.606 847.697 784.966 847.034 780.136 847.034C771.33 847.034 763.351 849.259 756.202 853.71C749.099 858.161 743.441 864.719 739.227 873.384C735.061 882.048 732.977 892.678 732.977 905.273C732.977 917.867 735.061 928.497 739.227 937.162C743.441 945.827 749.099 952.384 756.202 956.835C763.351 961.286 771.33 963.511 780.136 963.511C784.966 963.511 789.606 962.848 794.057 961.523C798.508 960.197 802.556 958.232 806.202 955.628C809.895 952.976 813.02 949.733 815.577 945.898C818.181 942.015 820.004 937.564 821.045 932.545H838.659C837.333 939.979 834.919 946.632 831.415 952.503C827.911 958.374 823.555 963.369 818.347 967.489C813.138 971.561 807.291 974.662 800.804 976.793C794.365 978.923 787.475 979.989 780.136 979.989C767.731 979.989 756.699 976.958 747.04 970.898C737.381 964.837 729.781 956.22 724.241 945.045C718.702 933.871 715.932 920.614 715.932 905.273C715.932 889.932 718.702 876.674 724.241 865.5C729.781 854.326 737.381 845.708 747.04 839.648C756.699 833.587 767.731 830.557 780.136 830.557C787.475 830.557 794.365 831.622 800.804 833.753C807.291 835.884 813.138 839.009 818.347 843.128C823.555 847.2 827.911 852.171 831.415 858.043C834.919 863.866 837.333 870.519 838.659 878Z" fill="#ACACAC"/>
</svg>
