<svg width="1040" height="1040" viewBox="0 0 1040 1040" fill="none" xmlns="http://www.w3.org/2000/svg">
<path d="M6 25C6 14.5066 14.5066 6 25 6H1015C1025.49 6 1034 14.5066 1034 25V520H6V25Z" stroke="#D5D6D8" stroke-width="12"/>
<path d="M451.041 377H422.033L505.934 148.504H534.496L618.397 377H589.388L521.107 184.653H519.322L451.041 377ZM461.752 287.744H578.678V312.289H461.752V287.744Z" fill="#ACACAC"/>
<path d="M6 520H1034V1015C1034 1025.49 1025.49 1034 1015 1034H25C14.5066 1034 6 1025.49 6 1015V520Z" stroke="#D5D6D8" stroke-width="12"/>
<path d="M445.669 891V662.504H525.554C541.471 662.504 554.599 665.256 564.938 670.76C575.277 676.19 582.975 683.517 588.033 692.74C593.091 701.888 595.62 712.041 595.62 723.198C595.62 733.017 593.872 741.124 590.376 747.521C586.955 753.917 582.417 758.975 576.764 762.694C571.186 766.413 565.124 769.165 558.579 770.95V773.182C565.57 773.628 572.599 776.083 579.665 780.545C586.731 785.008 592.645 791.405 597.405 799.736C602.165 808.066 604.545 818.256 604.545 830.306C604.545 841.76 601.942 852.062 596.736 861.211C591.529 870.36 583.31 877.612 572.079 882.967C560.847 888.322 546.231 891 528.231 891H445.669ZM473.339 866.455H528.231C546.306 866.455 559.136 862.959 566.723 855.967C574.384 848.901 578.215 840.347 578.215 830.306C578.215 822.57 576.244 815.43 572.302 808.884C568.36 802.264 562.744 796.983 555.455 793.041C548.165 789.025 539.537 787.017 529.57 787.017H473.339V866.455ZM473.339 762.917H524.661C532.992 762.917 540.504 761.281 547.198 758.008C553.967 754.736 559.322 750.124 563.264 744.174C567.281 738.223 569.289 731.231 569.289 723.198C569.289 713.157 565.793 704.64 558.802 697.649C551.81 690.583 540.727 687.05 525.554 687.05H473.339V762.917Z" fill="#ACACAC"/>
</svg>
