<svg width="1040" height="1040" viewBox="0 0 1040 1040" fill="none" xmlns="http://www.w3.org/2000/svg">
<path d="M25 6H1015C1025.49 6 1034 14.5066 1034 25V520H6V25C6 14.5066 14.5066 6 25 6Z" stroke="#D5D6D8" stroke-width="12"/>
<path d="M450.041 377H421.033L504.934 148.504H533.496L617.397 377H588.388L520.107 184.653H518.322L450.041 377ZM460.752 287.744H577.678V312.289H460.752V287.744Z" fill="#ACACAC"/>
<path d="M6 520H520V1034H25C14.5066 1034 6 1025.49 6 1015V520Z" stroke="#D5D6D8" stroke-width="12"/>
<path d="M177.669 891V662.504H257.554C273.471 662.504 286.599 665.256 296.938 670.76C307.277 676.19 314.975 683.517 320.033 692.74C325.091 701.888 327.62 712.041 327.62 723.198C327.62 733.017 325.872 741.124 322.376 747.521C318.955 753.917 314.417 758.975 308.764 762.694C303.186 766.413 297.124 769.165 290.579 770.95V773.182C297.57 773.628 304.599 776.083 311.665 780.545C318.731 785.008 324.645 791.405 329.405 799.736C334.165 808.066 336.545 818.256 336.545 830.306C336.545 841.76 333.942 852.062 328.736 861.211C323.529 870.36 315.31 877.612 304.079 882.967C292.847 888.322 278.231 891 260.231 891H177.669ZM205.339 866.455H260.231C278.306 866.455 291.136 862.959 298.723 855.967C306.384 848.901 310.215 840.347 310.215 830.306C310.215 822.57 308.244 815.43 304.302 808.884C300.36 802.264 294.744 796.983 287.455 793.041C280.165 789.025 271.537 787.017 261.57 787.017H205.339V866.455ZM205.339 762.917H256.661C264.992 762.917 272.504 761.281 279.198 758.008C285.967 754.736 291.322 750.124 295.264 744.174C299.281 738.223 301.289 731.231 301.289 723.198C301.289 713.157 297.793 704.64 290.802 697.649C283.81 690.583 272.727 687.05 257.554 687.05H205.339V762.917Z" fill="#ACACAC"/>
<path d="M520 520H1034V1015C1034 1025.49 1025.49 1034 1015 1034H520V520Z" stroke="#D5D6D8" stroke-width="12"/>
<path d="M873.537 733.909H845.868C844.231 725.95 841.368 718.959 837.277 712.934C833.26 706.909 828.351 701.851 822.55 697.76C816.822 693.595 810.463 690.471 803.471 688.388C796.479 686.306 789.19 685.264 781.603 685.264C767.769 685.264 755.236 688.76 744.004 695.752C732.847 702.744 723.959 713.045 717.339 726.657C710.793 740.269 707.521 756.967 707.521 776.752C707.521 796.537 710.793 813.236 717.339 826.847C723.959 840.459 732.847 850.76 744.004 857.752C755.236 864.744 767.769 868.24 781.603 868.24C789.19 868.24 796.479 867.198 803.471 865.116C810.463 863.033 816.822 859.946 822.55 855.855C828.351 851.69 833.26 846.595 837.277 840.57C841.368 834.471 844.231 827.479 845.868 819.595H873.537C871.455 831.273 867.661 841.723 862.157 850.946C856.653 860.169 849.81 868.017 841.628 874.488C833.446 880.884 824.26 885.756 814.07 889.103C803.955 892.45 793.132 894.124 781.603 894.124C762.116 894.124 744.785 889.364 729.612 879.843C714.438 870.322 702.5 856.785 693.798 839.231C685.095 821.678 680.744 800.851 680.744 776.752C680.744 752.653 685.095 731.826 693.798 714.273C702.5 696.719 714.438 683.182 729.612 673.661C744.785 664.14 762.116 659.38 781.603 659.38C793.132 659.38 803.955 661.054 814.07 664.401C824.26 667.748 833.446 672.657 841.628 679.128C849.81 685.525 856.653 693.335 862.157 702.558C867.661 711.707 871.455 722.157 873.537 733.909Z" fill="#ACACAC"/>
</svg>
