<svg width="1040" height="1040" viewBox="0 0 1040 1040" fill="none" xmlns="http://www.w3.org/2000/svg">
<path d="M25 6H520V520H6V25C6 14.5066 14.5066 6 25 6Z" stroke="#D5D6D8" stroke-width="12"/>
<path d="M194.041 377H165.033L248.934 148.504H277.496L361.397 377H332.388L264.107 184.653H262.322L194.041 377ZM204.752 287.744H321.678V312.289H204.752V287.744Z" fill="#ACACAC"/>
<path d="M6 520H520V1034H25C14.5066 1034 6 1025.49 6 1015V520Z" stroke="#D5D6D8" stroke-width="12"/>
<path d="M188.669 891V662.504H268.554C284.471 662.504 297.599 665.256 307.938 670.76C318.277 676.19 325.975 683.517 331.033 692.74C336.091 701.888 338.62 712.041 338.62 723.198C338.62 733.017 336.872 741.124 333.376 747.521C329.955 753.917 325.417 758.975 319.764 762.694C314.186 766.413 308.124 769.165 301.579 770.95V773.182C308.57 773.628 315.599 776.083 322.665 780.545C329.731 785.008 335.645 791.405 340.405 799.736C345.165 808.066 347.545 818.256 347.545 830.306C347.545 841.76 344.942 852.062 339.736 861.211C334.529 870.36 326.31 877.612 315.079 882.967C303.847 888.322 289.231 891 271.231 891H188.669ZM216.339 866.455H271.231C289.306 866.455 302.136 862.959 309.723 855.967C317.384 848.901 321.215 840.347 321.215 830.306C321.215 822.57 319.244 815.43 315.302 808.884C311.36 802.264 305.744 796.983 298.455 793.041C291.165 789.025 282.537 787.017 272.57 787.017H216.339V866.455ZM216.339 762.917H267.661C275.992 762.917 283.504 761.281 290.198 758.008C296.967 754.736 302.322 750.124 306.264 744.174C310.281 738.223 312.289 731.231 312.289 723.198C312.289 713.157 308.793 704.64 301.802 697.649C294.81 690.583 283.727 687.05 268.554 687.05H216.339V762.917Z" fill="#ACACAC"/>
<path d="M520 6H1015C1025.49 6 1034 14.5066 1034 25V1015C1034 1025.49 1025.49 1034 1015 1034H520V6Z" stroke="#D5D6D8" stroke-width="12"/>
<path d="M874.537 476.909H846.868C845.231 468.95 842.368 461.959 838.277 455.934C834.26 449.909 829.351 444.851 823.55 440.76C817.822 436.595 811.463 433.471 804.471 431.388C797.479 429.306 790.19 428.264 782.603 428.264C768.769 428.264 756.236 431.76 745.004 438.752C733.847 445.744 724.959 456.045 718.339 469.657C711.793 483.269 708.521 499.967 708.521 519.752C708.521 539.537 711.793 556.236 718.339 569.847C724.959 583.459 733.847 593.76 745.004 600.752C756.236 607.744 768.769 611.24 782.603 611.24C790.19 611.24 797.479 610.198 804.471 608.116C811.463 606.033 817.822 602.946 823.55 598.855C829.351 594.69 834.26 589.595 838.277 583.57C842.368 577.471 845.231 570.479 846.868 562.595H874.537C872.455 574.273 868.661 584.723 863.157 593.946C857.653 603.169 850.81 611.017 842.628 617.488C834.446 623.884 825.26 628.756 815.07 632.103C804.955 635.45 794.132 637.124 782.603 637.124C763.116 637.124 745.785 632.364 730.612 622.843C715.438 613.322 703.5 599.785 694.798 582.231C686.095 564.678 681.744 543.851 681.744 519.752C681.744 495.653 686.095 474.826 694.798 457.273C703.5 439.719 715.438 426.182 730.612 416.661C745.785 407.14 763.116 402.38 782.603 402.38C794.132 402.38 804.955 404.054 815.07 407.401C825.26 410.748 834.446 415.657 842.628 422.128C850.81 428.525 857.653 436.335 863.157 445.558C868.661 454.707 872.455 465.157 874.537 476.909Z" fill="#ACACAC"/>
</svg>
