<svg width="1040" height="1040" viewBox="0 0 1040 1040" fill="none" xmlns="http://www.w3.org/2000/svg">
<path d="M6 25C6 14.5066 14.5066 6 25 6H1015C1025.49 6 1034 14.5066 1034 25V518H6V25Z" stroke="#D5D6D8" stroke-width="12"/>
<path d="M465.474 353H442.392L509.153 171.182H531.881L598.642 353H575.56L521.227 199.946H519.807L465.474 353ZM473.997 281.977H567.037V301.509H473.997V281.977Z" fill="#ACACAC"/>
<rect x="6" y="518" width="1028" height="258" stroke="#D5D6D8" stroke-width="12"/>
<path d="M472.614 720V574.545H523.466C533.598 574.545 541.955 576.297 548.537 579.801C555.118 583.258 560.019 587.921 563.239 593.793C566.458 599.616 568.068 606.08 568.068 613.182C568.068 619.432 566.955 624.593 564.73 628.665C562.552 632.737 559.664 635.956 556.065 638.324C552.514 640.691 548.655 642.443 544.489 643.58V645C548.939 645.284 553.414 646.847 557.912 649.688C562.41 652.528 566.174 656.6 569.205 661.903C572.235 667.206 573.75 673.693 573.75 681.364C573.75 688.655 572.093 695.213 568.778 701.037C565.464 706.861 560.232 711.477 553.082 714.886C545.933 718.295 536.629 720 525.17 720H472.614ZM490.227 704.375H525.17C536.676 704.375 544.844 702.15 549.673 697.699C554.55 693.201 556.989 687.756 556.989 681.364C556.989 676.439 555.734 671.894 553.224 667.727C550.715 663.513 547.14 660.152 542.5 657.642C537.86 655.085 532.367 653.807 526.023 653.807H490.227V704.375ZM490.227 638.466H522.898C528.201 638.466 532.983 637.424 537.244 635.341C541.553 633.258 544.962 630.322 547.472 626.534C550.028 622.746 551.307 618.295 551.307 613.182C551.307 606.79 549.081 601.368 544.631 596.918C540.18 592.42 533.125 590.17 523.466 590.17H490.227V638.466Z" fill="#ACACAC"/>
<path d="M6 776H1034V1015C1034 1025.49 1025.49 1034 1015 1034H25C14.5066 1034 6 1025.49 6 1015V776Z" stroke="#D5D6D8" stroke-width="12"/>
<path d="M581.659 878H564.045C563.004 872.934 561.181 868.483 558.577 864.648C556.02 860.812 552.895 857.593 549.202 854.989C545.556 852.337 541.508 850.348 537.057 849.023C532.606 847.697 527.966 847.034 523.136 847.034C514.33 847.034 506.351 849.259 499.202 853.71C492.099 858.161 486.441 864.719 482.227 873.384C478.061 882.048 475.977 892.678 475.977 905.273C475.977 917.867 478.061 928.497 482.227 937.162C486.441 945.827 492.099 952.384 499.202 956.835C506.351 961.286 514.33 963.511 523.136 963.511C527.966 963.511 532.606 962.848 537.057 961.523C541.508 960.197 545.556 958.232 549.202 955.628C552.895 952.976 556.02 949.733 558.577 945.898C561.181 942.015 563.004 937.564 564.045 932.545H581.659C580.333 939.979 577.919 946.632 574.415 952.503C570.911 958.374 566.555 963.369 561.347 967.489C556.138 971.561 550.291 974.662 543.804 976.793C537.365 978.923 530.475 979.989 523.136 979.989C510.731 979.989 499.699 976.958 490.04 970.898C480.381 964.837 472.781 956.22 467.241 945.045C461.702 933.871 458.932 920.614 458.932 905.273C458.932 889.932 461.702 876.674 467.241 865.5C472.781 854.326 480.381 845.708 490.04 839.648C499.699 833.587 510.731 830.557 523.136 830.557C530.475 830.557 537.365 831.622 543.804 833.753C550.291 835.884 556.138 839.009 561.347 843.128C566.555 847.2 570.911 852.171 574.415 858.043C577.919 863.866 580.333 870.519 581.659 878Z" fill="#ACACAC"/>
</svg>
