<svg width="1040" height="1040" viewBox="0 0 1040 1040" fill="none" xmlns="http://www.w3.org/2000/svg">
<path d="M6 25C6 14.5066 14.5066 6 25 6H518V1034H25C14.5066 1034 6 1025.49 6 1015V25Z" stroke="#D5D6D8" stroke-width="12"/>
<path d="M192.041 634H163.033L246.934 405.504H275.496L359.397 634H330.388L262.107 441.653H260.322L192.041 634ZM202.752 544.744H319.678V569.289H202.752V544.744Z" fill="#ACACAC"/>
<path d="M518 6H1011C1021.49 6 1030 14.5066 1030 25V1015C1030 1025.49 1021.49 1034 1011 1034H518V6Z" stroke="#D5D6D8" stroke-width="12"/>
<path d="M694.669 634V405.504H774.554C790.471 405.504 803.599 408.256 813.938 413.76C824.277 419.19 831.975 426.517 837.033 435.74C842.091 444.888 844.62 455.041 844.62 466.198C844.62 476.017 842.872 484.124 839.376 490.521C835.955 496.917 831.417 501.975 825.764 505.694C820.186 509.413 814.124 512.165 807.579 513.95V516.182C814.57 516.628 821.599 519.083 828.665 523.545C835.731 528.008 841.645 534.405 846.405 542.736C851.165 551.066 853.545 561.256 853.545 573.306C853.545 584.76 850.942 595.062 845.736 604.211C840.529 613.36 832.31 620.612 821.079 625.967C809.847 631.322 795.231 634 777.231 634H694.669ZM722.339 609.455H777.231C795.306 609.455 808.136 605.959 815.723 598.967C823.384 591.901 827.215 583.347 827.215 573.306C827.215 565.57 825.244 558.43 821.302 551.884C817.36 545.264 811.744 539.983 804.455 536.041C797.165 532.025 788.537 530.017 778.57 530.017H722.339V609.455ZM722.339 505.917H773.661C781.992 505.917 789.504 504.281 796.198 501.008C802.967 497.736 808.322 493.124 812.264 487.174C816.281 481.223 818.289 474.231 818.289 466.198C818.289 456.157 814.793 447.64 807.802 440.649C800.81 433.583 789.727 430.05 774.554 430.05H722.339V505.917Z" fill="#ACACAC"/>
</svg>
