<svg width="1040" height="1040" viewBox="0 0 1040 1040" fill="none" xmlns="http://www.w3.org/2000/svg">
<path d="M25 6H348.667V520H6V25C6 14.5066 14.5066 6 25 6Z" stroke="#D5D6D8" stroke-width="12"/>
<path d="M122.474 354H99.392L166.153 172.182H188.881L255.642 354H232.56L178.227 200.946H176.807L122.474 354ZM130.997 282.977H224.037V302.509H130.997V282.977Z" fill="#ACACAC"/>
<rect x="348.667" y="6" width="342.667" height="514" stroke="#D5D6D8" stroke-width="12"/>
<path d="M460.684 354V172.182H524.249C536.915 172.182 547.361 174.372 555.588 178.751C563.815 183.072 569.94 188.902 573.965 196.241C577.99 203.521 580.002 211.599 580.002 220.477C580.002 228.29 578.611 234.741 575.829 239.831C573.107 244.921 569.497 248.946 564.998 251.905C560.56 254.864 555.736 257.054 550.528 258.474V260.25C556.091 260.605 561.684 262.558 567.307 266.109C572.929 269.661 577.635 274.75 581.422 281.379C585.21 288.008 587.104 296.116 587.104 305.705C587.104 314.819 585.033 323.016 580.89 330.296C576.747 337.576 570.207 343.347 561.27 347.608C552.333 351.869 540.703 354 526.38 354H460.684ZM482.701 334.469H526.38C540.762 334.469 550.971 331.687 557.008 326.124C563.104 320.501 566.153 313.695 566.153 305.705C566.153 299.549 564.584 293.867 561.447 288.659C558.31 283.392 553.842 279.189 548.042 276.053C542.242 272.857 535.376 271.259 527.445 271.259H482.701V334.469ZM482.701 252.082H523.539C530.168 252.082 536.145 250.78 541.472 248.176C546.858 245.572 551.119 241.902 554.256 237.168C557.452 232.433 559.05 226.869 559.05 220.477C559.05 212.487 556.269 205.71 550.705 200.147C545.142 194.524 536.323 191.713 524.249 191.713H482.701V252.082Z" fill="#ACACAC"/>
<path d="M691.333 6H1015C1025.49 6 1034 14.5066 1034 25V520H691.333V6Z" stroke="#D5D6D8" stroke-width="12"/>
<path d="M939.657 229H917.64C916.338 222.667 914.06 217.104 910.804 212.31C907.608 207.516 903.702 203.491 899.086 200.236C894.528 196.921 889.468 194.436 883.905 192.778C878.341 191.121 872.541 190.293 866.504 190.293C855.495 190.293 845.523 193.074 836.586 198.638C827.708 204.201 820.635 212.398 815.368 223.229C810.159 234.06 807.555 247.348 807.555 263.091C807.555 278.834 810.159 292.121 815.368 302.952C820.635 313.783 827.708 321.981 836.586 327.544C845.523 333.107 855.495 335.889 866.504 335.889C872.541 335.889 878.341 335.061 883.905 333.403C889.468 331.746 894.528 329.29 899.086 326.035C903.702 322.72 907.608 318.666 910.804 313.872C914.06 309.019 916.338 303.455 917.64 297.182H939.657C938 306.474 934.982 314.79 930.602 322.129C926.222 329.468 920.777 335.712 914.267 340.861C907.756 345.951 900.447 349.827 892.338 352.491C884.289 355.154 875.678 356.486 866.504 356.486C850.997 356.486 837.207 352.698 825.133 345.122C813.059 337.546 803.56 326.775 796.635 312.807C789.711 298.839 786.248 282.267 786.248 263.091C786.248 243.915 789.711 227.343 796.635 213.375C803.56 199.407 813.059 188.635 825.133 181.06C837.207 173.484 850.997 169.696 866.504 169.696C875.678 169.696 884.289 171.028 892.338 173.691C900.447 176.354 907.756 180.261 914.267 185.41C920.777 190.5 926.222 196.714 930.602 204.053C934.982 211.333 938 219.649 939.657 229Z" fill="#ACACAC"/>
<path d="M6 520H348.667V1034H25C14.5066 1034 6 1025.49 6 1015V520Z" stroke="#D5D6D8" stroke-width="12"/>
<path d="M165.125 868H109.017V686.182H167.611C185.248 686.182 200.34 689.822 212.888 697.102C225.435 704.322 235.053 714.709 241.741 728.263C248.429 741.757 251.773 757.915 251.773 776.736C251.773 795.675 248.399 811.981 241.652 825.653C234.905 839.265 225.08 849.741 212.178 857.08C199.275 864.36 183.591 868 165.125 868ZM131.034 848.469H163.705C178.738 848.469 191.196 845.569 201.08 839.768C210.964 833.968 218.333 825.712 223.186 814.999C228.039 804.287 230.466 791.532 230.466 776.736C230.466 762.058 228.069 749.422 223.275 738.827C218.481 728.174 211.319 720.006 201.79 714.325C192.262 708.584 180.395 705.713 166.19 705.713H131.034V848.469Z" fill="#ACACAC"/>
<rect x="348.667" y="520" width="342.667" height="514" stroke="#D5D6D8" stroke-width="12"/>
<path d="M466.684 868V686.182H576.414V705.713H488.701V767.148H570.732V786.679H488.701V848.469H577.834V868H466.684Z" fill="#ACACAC"/>
<path d="M691.333 520H1034V1015C1034 1025.49 1025.49 1034 1015 1034H691.333V520Z" stroke="#D5D6D8" stroke-width="12"/>
<path d="M811.351 868V686.182H920.37V705.713H833.368V767.148H912.203V786.679H833.368V868H811.351Z" fill="#ACACAC"/>
</svg>
