<svg width="2500" height="1686" viewBox="0 0 2500 1686" fill="none" xmlns="http://www.w3.org/2000/svg">
<g clip-path="url(#clip0_116_316)">
<rect x="6" y="6" width="2488" height="837" stroke="#D5D6D8" stroke-width="12"/>
<path d="M1181.04 539H1152.03L1235.93 310.504H1264.5L1348.4 539H1319.39L1251.11 346.653H1249.32L1181.04 539ZM1191.75 449.744H1308.68V474.289H1191.75V449.744Z" fill="#A7A7A7"/>
<rect x="6" y="843" width="2488" height="837" stroke="#D5D6D8" stroke-width="12"/>
<path d="M1175.67 1376.6V1148.11H1255.55C1271.47 1148.11 1284.6 1150.86 1294.94 1156.36C1305.28 1161.79 1312.98 1169.12 1318.03 1178.34C1323.09 1187.49 1325.62 1197.64 1325.62 1208.8C1325.62 1218.62 1323.87 1226.73 1320.38 1233.12C1316.95 1239.52 1312.42 1244.58 1306.76 1248.3C1301.19 1252.01 1295.12 1254.77 1288.58 1256.55V1258.78C1295.57 1259.23 1302.6 1261.68 1309.67 1266.15C1316.73 1270.61 1322.64 1277.01 1327.4 1285.34C1332.17 1293.67 1334.55 1303.86 1334.55 1315.91C1334.55 1327.36 1331.94 1337.66 1326.74 1346.81C1321.53 1355.96 1313.31 1363.21 1302.08 1368.57C1290.85 1373.92 1276.23 1376.6 1258.23 1376.6H1175.67ZM1203.34 1352.06H1258.23C1276.31 1352.06 1289.14 1348.56 1296.72 1341.57C1304.38 1334.5 1308.21 1325.95 1308.21 1315.91C1308.21 1308.17 1306.24 1301.03 1302.3 1294.49C1298.36 1287.87 1292.74 1282.59 1285.45 1278.64C1278.17 1274.63 1269.54 1272.62 1259.57 1272.62H1203.34V1352.06ZM1203.34 1248.52H1254.66C1262.99 1248.52 1270.5 1246.88 1277.2 1243.61C1283.97 1240.34 1289.32 1235.73 1293.26 1229.78C1297.28 1223.82 1299.29 1216.83 1299.29 1208.8C1299.29 1198.76 1295.79 1190.24 1288.8 1183.25C1281.81 1176.18 1270.73 1172.65 1255.55 1172.65H1203.34V1248.52Z" fill="#A7A7A7"/>
</g>
<defs>
<clipPath id="clip0_116_316">
<rect width="2500" height="1686" fill="white"/>
</clipPath>
</defs>
</svg>
