<svg width="2500" height="1686" viewBox="0 0 2500 1686" fill="none" xmlns="http://www.w3.org/2000/svg">
<g clip-path="url(#clip0_116_183)">
<rect x="6" y="6" width="1244" height="837" stroke="#D5D6D8" stroke-width="12"/>
<path d="M559.041 539H530.033L613.934 310.504H642.496L726.397 539H697.388L629.107 346.653H627.322L559.041 539ZM569.752 449.744H686.678V474.289H569.752V449.744Z" fill="#A7A7A7"/>
<rect x="1250" y="6" width="1244" height="837" stroke="#D5D6D8" stroke-width="12"/>
<path d="M1797.67 539V310.504H1877.55C1893.47 310.504 1906.6 313.256 1916.94 318.76C1927.28 324.19 1934.98 331.517 1940.03 340.74C1945.09 349.888 1947.62 360.041 1947.62 371.198C1947.62 381.017 1945.87 389.124 1942.38 395.521C1938.95 401.917 1934.42 406.975 1928.76 410.694C1923.19 414.413 1917.12 417.165 1910.58 418.95V421.182C1917.57 421.628 1924.6 424.083 1931.67 428.545C1938.73 433.008 1944.64 439.405 1949.4 447.736C1954.17 456.066 1956.55 466.256 1956.55 478.306C1956.55 489.76 1953.94 500.062 1948.74 509.211C1943.53 518.36 1935.31 525.612 1924.08 530.967C1912.85 536.322 1898.23 539 1880.23 539H1797.67ZM1825.34 514.455H1880.23C1898.31 514.455 1911.14 510.959 1918.72 503.967C1926.38 496.901 1930.21 488.347 1930.21 478.306C1930.21 470.57 1928.24 463.43 1924.3 456.884C1920.36 450.264 1914.74 444.983 1907.45 441.041C1900.17 437.025 1891.54 435.017 1881.57 435.017H1825.34V514.455ZM1825.34 410.917H1876.66C1884.99 410.917 1892.5 409.281 1899.2 406.008C1905.97 402.736 1911.32 398.124 1915.26 392.174C1919.28 386.223 1921.29 379.231 1921.29 371.198C1921.29 361.157 1917.79 352.64 1910.8 345.649C1903.81 338.583 1892.73 335.05 1877.55 335.05H1825.34V410.917Z" fill="#A7A7A7"/>
<rect x="6" y="843" width="1244" height="837" stroke="#D5D6D8" stroke-width="12"/>
<path d="M725.537 1219.51H697.868C696.231 1211.55 693.368 1204.56 689.277 1198.54C685.26 1192.51 680.351 1187.45 674.55 1183.36C668.822 1179.2 662.463 1176.07 655.471 1173.99C648.479 1171.91 641.19 1170.87 633.603 1170.87C619.769 1170.87 607.236 1174.36 596.004 1181.35C584.847 1188.35 575.959 1198.65 569.339 1212.26C562.793 1225.87 559.521 1242.57 559.521 1262.35C559.521 1282.14 562.793 1298.84 569.339 1312.45C575.959 1326.06 584.847 1336.36 596.004 1343.35C607.236 1350.35 619.769 1353.84 633.603 1353.84C641.19 1353.84 648.479 1352.8 655.471 1350.72C662.463 1348.63 668.822 1345.55 674.55 1341.46C680.351 1337.29 685.26 1332.2 689.277 1326.17C693.368 1320.07 696.231 1313.08 697.868 1305.2H725.537C723.455 1316.87 719.661 1327.32 714.157 1336.55C708.653 1345.77 701.81 1353.62 693.628 1360.09C685.446 1366.49 676.26 1371.36 666.07 1374.7C655.955 1378.05 645.132 1379.73 633.603 1379.73C614.116 1379.73 596.785 1374.97 581.612 1365.44C566.438 1355.92 554.5 1342.39 545.798 1324.83C537.095 1307.28 532.744 1286.45 532.744 1262.35C532.744 1238.25 537.095 1217.43 545.798 1199.87C554.5 1182.32 566.438 1168.78 581.612 1159.26C596.785 1149.74 614.116 1144.98 633.603 1144.98C645.132 1144.98 655.955 1146.66 666.07 1150C676.26 1153.35 685.446 1158.26 693.628 1164.73C701.81 1171.13 708.653 1178.94 714.157 1188.16C719.661 1197.31 723.455 1207.76 725.537 1219.51Z" fill="#A7A7A7"/>
<rect x="1250" y="843" width="1244" height="837" stroke="#D5D6D8" stroke-width="12"/>
<path d="M1857.18 1376.6H1786.67V1148.11H1860.31C1882.47 1148.11 1901.44 1152.68 1917.21 1161.83C1932.98 1170.9 1945.06 1183.96 1953.47 1200.99C1961.87 1217.95 1966.07 1238.25 1966.07 1261.91C1966.07 1285.71 1961.83 1306.2 1953.36 1323.38C1944.88 1340.49 1932.53 1353.66 1916.31 1362.88C1900.1 1372.03 1880.39 1376.6 1857.18 1376.6ZM1814.34 1352.06H1855.4C1874.29 1352.06 1889.95 1348.41 1902.37 1341.12C1914.79 1333.83 1924.05 1323.46 1930.15 1309.99C1936.25 1296.53 1939.3 1280.5 1939.3 1261.91C1939.3 1243.46 1936.29 1227.58 1930.26 1214.27C1924.24 1200.88 1915.24 1190.61 1903.26 1183.47C1891.29 1176.26 1876.37 1172.65 1858.52 1172.65H1814.34V1352.06Z" fill="#A7A7A7"/>
</g>
<defs>
<clipPath id="clip0_116_183">
<rect width="2500" height="1686" fill="white"/>
</clipPath>
</defs>
</svg>
