<svg width="2500" height="1686" viewBox="0 0 2500 1686" fill="none" xmlns="http://www.w3.org/2000/svg">
<g clip-path="url(#clip0_116_205)">
<rect x="6" y="6" width="829.333" height="837" stroke="#D9D9D9" stroke-width="12"/>
<path d="M352.041 539H323.033L406.934 310.504H435.496L519.397 539H490.388L422.107 346.653H420.322L352.041 539ZM362.752 449.744H479.678V474.289H362.752V449.744Z" fill="#A7A7A7"/>
<rect x="835.333" y="6" width="829.333" height="837" stroke="#D9D9D9" stroke-width="12"/>
<path d="M1175.34 539V310.504H1255.22C1271.14 310.504 1284.27 313.256 1294.6 318.76C1304.94 324.19 1312.64 331.517 1317.7 340.74C1322.76 349.888 1325.29 360.041 1325.29 371.198C1325.29 381.017 1323.54 389.124 1320.04 395.521C1316.62 401.917 1312.08 406.975 1306.43 410.694C1300.85 414.413 1294.79 417.165 1288.25 418.95V421.182C1295.24 421.628 1302.27 424.083 1309.33 428.545C1316.4 433.008 1322.31 439.405 1327.07 447.736C1331.83 456.066 1334.21 466.256 1334.21 478.306C1334.21 489.76 1331.61 500.062 1326.4 509.211C1321.2 518.36 1312.98 525.612 1301.75 530.967C1290.51 536.322 1275.9 539 1257.9 539H1175.34ZM1203.01 514.455H1257.9C1275.97 514.455 1288.8 510.959 1296.39 503.967C1304.05 496.901 1307.88 488.347 1307.88 478.306C1307.88 470.57 1305.91 463.43 1301.97 456.884C1298.03 450.264 1292.41 444.983 1285.12 441.041C1277.83 437.025 1269.2 435.017 1259.24 435.017H1203.01V514.455ZM1203.01 410.917H1254.33C1262.66 410.917 1270.17 409.281 1276.87 406.008C1283.63 402.736 1288.99 398.124 1292.93 392.174C1296.95 386.223 1298.96 379.231 1298.96 371.198C1298.96 361.157 1295.46 352.64 1288.47 345.649C1281.48 338.583 1270.39 335.05 1255.22 335.05H1203.01V410.917Z" fill="#A7A7A7"/>
<rect x="1664.67" y="6" width="829.333" height="837" stroke="#D9D9D9" stroke-width="12"/>
<path d="M2176.87 381.909H2149.2C2147.57 373.95 2144.7 366.959 2140.61 360.934C2136.59 354.909 2131.68 349.851 2125.88 345.76C2120.16 341.595 2113.8 338.471 2106.8 336.388C2099.81 334.306 2092.52 333.264 2084.94 333.264C2071.1 333.264 2058.57 336.76 2047.34 343.752C2036.18 350.744 2027.29 361.045 2020.67 374.657C2014.13 388.269 2010.85 404.967 2010.85 424.752C2010.85 444.537 2014.13 461.236 2020.67 474.847C2027.29 488.459 2036.18 498.76 2047.34 505.752C2058.57 512.744 2071.1 516.24 2084.94 516.24C2092.52 516.24 2099.81 515.198 2106.8 513.116C2113.8 511.033 2120.16 507.946 2125.88 503.855C2131.68 499.69 2136.59 494.595 2140.61 488.57C2144.7 482.471 2147.57 475.479 2149.2 467.595H2176.87C2174.79 479.273 2170.99 489.723 2165.49 498.946C2159.99 508.169 2153.14 516.017 2144.96 522.488C2136.78 528.884 2127.59 533.756 2117.4 537.103C2107.29 540.45 2096.47 542.124 2084.94 542.124C2065.45 542.124 2048.12 537.364 2032.95 527.843C2017.77 518.322 2005.83 504.785 1997.13 487.231C1988.43 469.678 1984.08 448.851 1984.08 424.752C1984.08 400.653 1988.43 379.826 1997.13 362.273C2005.83 344.719 2017.77 331.182 2032.95 321.661C2048.12 312.14 2065.45 307.38 2084.94 307.38C2096.47 307.38 2107.29 309.054 2117.4 312.401C2127.59 315.748 2136.78 320.657 2144.96 327.128C2153.14 333.525 2159.99 341.335 2165.49 350.558C2170.99 359.707 2174.79 370.157 2176.87 381.909Z" fill="#A7A7A7"/>
<rect x="6" y="843" width="829.333" height="837" stroke="#D5D6D8" stroke-width="12"/>
<path d="M406.182 1376.6H335.669V1148.11H409.306C431.471 1148.11 450.438 1152.68 466.207 1161.83C481.975 1170.9 494.062 1183.96 502.467 1200.99C510.872 1217.95 515.074 1238.25 515.074 1261.91C515.074 1285.71 510.835 1306.2 502.355 1323.38C493.876 1340.49 481.529 1353.66 465.314 1362.88C449.099 1372.03 429.388 1376.6 406.182 1376.6ZM363.339 1352.06H404.397C423.289 1352.06 438.946 1348.41 451.368 1341.12C463.789 1333.83 473.05 1323.46 479.149 1309.99C485.248 1296.53 488.298 1280.5 488.298 1261.91C488.298 1243.46 485.285 1227.58 479.26 1214.27C473.236 1200.88 464.236 1190.61 452.26 1183.47C440.285 1176.26 425.372 1172.65 407.521 1172.65H363.339V1352.06Z" fill="#A7A7A7"/>
<rect x="835.333" y="843" width="829.333" height="837" stroke="#D5D6D8" stroke-width="12"/>
<path d="M1184.34 1376.6V1148.11H1322.24V1172.65H1212.01V1249.86H1315.1V1274.4H1212.01V1352.06H1324.02V1376.6H1184.34Z" fill="#A7A7A7"/>
<rect x="1664.67" y="843" width="829.333" height="837" stroke="#D5D6D8" stroke-width="12"/>
<path d="M2015 1376.6V1148.11H2152.01V1172.65H2042.67V1249.86H2141.75V1274.4H2042.67V1376.6H2015Z" fill="#A7A7A7"/>
</g>
<defs>
<clipPath id="clip0_116_205">
<rect width="2500" height="1686" fill="white"/>
</clipPath>
</defs>
</svg>
