<svg width="2500" height="1686" viewBox="0 0 2500 1686" fill="none" xmlns="http://www.w3.org/2000/svg">
<g clip-path="url(#clip0_116_278)">
<rect x="6" y="6" width="1244" height="1674" stroke="#D5D6D8" stroke-width="12"/>
<path d="M540.159 988H503.227L610.045 697.091H646.409L753.227 988H716.295L629.364 743.114H627.091L540.159 988ZM553.795 874.364H702.659V905.614H553.795V874.364Z" fill="#A7A7A7"/>
<rect x="1250" y="6" width="1244" height="1674" stroke="#D5D6D8" stroke-width="12"/>
<path d="M1777.23 988V697.091H1878.93C1899.2 697.091 1915.91 700.595 1929.07 707.602C1942.24 714.515 1952.04 723.843 1958.48 735.585C1964.92 747.233 1968.14 760.159 1968.14 774.364C1968.14 786.864 1965.91 797.186 1961.46 805.33C1957.1 813.473 1951.33 819.913 1944.13 824.648C1937.03 829.383 1929.31 832.886 1920.98 835.159V838C1929.88 838.568 1938.83 841.693 1947.82 847.375C1956.82 853.057 1964.35 861.201 1970.41 871.807C1976.47 882.413 1979.5 895.386 1979.5 910.727C1979.5 925.311 1976.19 938.426 1969.56 950.074C1962.93 961.722 1952.46 970.955 1938.16 977.773C1923.87 984.591 1905.26 988 1882.34 988H1777.23ZM1812.45 956.75H1882.34C1905.35 956.75 1921.69 952.299 1931.35 943.398C1941.1 934.402 1945.98 923.511 1945.98 910.727C1945.98 900.879 1943.47 891.788 1938.45 883.455C1933.43 875.027 1926.28 868.303 1917 863.284C1907.72 858.17 1896.73 855.614 1884.05 855.614H1812.45V956.75ZM1812.45 824.932H1877.8C1888.4 824.932 1897.97 822.848 1906.49 818.682C1915.11 814.515 1921.92 808.644 1926.94 801.068C1932.06 793.492 1934.61 784.591 1934.61 774.364C1934.61 761.58 1930.16 750.737 1921.26 741.835C1912.36 732.839 1898.25 728.341 1878.93 728.341H1812.45V824.932Z" fill="#A7A7A7"/>
</g>
<defs>
<clipPath id="clip0_116_278">
<rect width="2500" height="1686" fill="white"/>
</clipPath>
</defs>
</svg>
