<svg width="2500" height="1686" viewBox="0 0 2500 1686" fill="none" xmlns="http://www.w3.org/2000/svg">
<g clip-path="url(#clip0_116_295)">
<rect x="6" y="6" width="2488" height="837" stroke="#D5D6D8" stroke-width="12"/>
<path d="M1181.04 539H1152.03L1235.93 310.504H1264.5L1348.4 539H1319.39L1251.11 346.653H1249.32L1181.04 539ZM1191.75 449.744H1308.68V474.289H1191.75V449.744Z" fill="#A7A7A7"/>
<rect x="6" y="843" width="826.667" height="837" stroke="#D5D6D8" stroke-width="12"/>
<path d="M344.669 1376.6V1148.11H424.554C440.471 1148.11 453.599 1150.86 463.938 1156.36C474.277 1161.79 481.975 1169.12 487.033 1178.34C492.091 1187.49 494.62 1197.64 494.62 1208.8C494.62 1218.62 492.872 1226.73 489.376 1233.12C485.955 1239.52 481.417 1244.58 475.764 1248.3C470.186 1252.01 464.124 1254.77 457.579 1256.55V1258.78C464.57 1259.23 471.599 1261.68 478.665 1266.15C485.731 1270.61 491.645 1277.01 496.405 1285.34C501.165 1293.67 503.545 1303.86 503.545 1315.91C503.545 1327.36 500.942 1337.66 495.736 1346.81C490.529 1355.96 482.31 1363.21 471.079 1368.57C459.847 1373.92 445.231 1376.6 427.231 1376.6H344.669ZM372.339 1352.06H427.231C445.306 1352.06 458.136 1348.56 465.723 1341.57C473.384 1334.5 477.215 1325.95 477.215 1315.91C477.215 1308.17 475.244 1301.03 471.302 1294.49C467.36 1287.87 461.744 1282.59 454.455 1278.64C447.165 1274.63 438.537 1272.62 428.57 1272.62H372.339V1352.06ZM372.339 1248.52H423.661C431.992 1248.52 439.504 1246.88 446.198 1243.61C452.967 1240.34 458.322 1235.73 462.264 1229.78C466.281 1223.82 468.289 1216.83 468.289 1208.8C468.289 1198.76 464.793 1190.24 457.802 1183.25C450.81 1176.18 439.727 1172.65 424.554 1172.65H372.339V1248.52Z" fill="#A7A7A7"/>
<rect x="836.667" y="843" width="826.667" height="837" stroke="#D5D6D8" stroke-width="12"/>
<path d="M1347.54 1219.51H1319.87C1318.23 1211.55 1315.37 1204.56 1311.28 1198.54C1307.26 1192.51 1302.35 1187.45 1296.55 1183.36C1290.82 1179.2 1284.46 1176.07 1277.47 1173.99C1270.48 1171.91 1263.19 1170.87 1255.6 1170.87C1241.77 1170.87 1229.24 1174.36 1218 1181.35C1206.85 1188.35 1197.96 1198.65 1191.34 1212.26C1184.79 1225.87 1181.52 1242.57 1181.52 1262.35C1181.52 1282.14 1184.79 1298.84 1191.34 1312.45C1197.96 1326.06 1206.85 1336.36 1218 1343.35C1229.24 1350.35 1241.77 1353.84 1255.6 1353.84C1263.19 1353.84 1270.48 1352.8 1277.47 1350.72C1284.46 1348.63 1290.82 1345.55 1296.55 1341.46C1302.35 1337.29 1307.26 1332.2 1311.28 1326.17C1315.37 1320.07 1318.23 1313.08 1319.87 1305.2H1347.54C1345.45 1316.87 1341.66 1327.32 1336.16 1336.55C1330.65 1345.77 1323.81 1353.62 1315.63 1360.09C1307.45 1366.49 1298.26 1371.36 1288.07 1374.7C1277.95 1378.05 1267.13 1379.73 1255.6 1379.73C1236.12 1379.73 1218.78 1374.97 1203.61 1365.44C1188.44 1355.92 1176.5 1342.39 1167.8 1324.83C1159.09 1307.28 1154.74 1286.45 1154.74 1262.35C1154.74 1238.25 1159.09 1217.43 1167.8 1199.87C1176.5 1182.32 1188.44 1168.78 1203.61 1159.26C1218.78 1149.74 1236.12 1144.98 1255.6 1144.98C1267.13 1144.98 1277.95 1146.66 1288.07 1150C1298.26 1153.35 1307.45 1158.26 1315.63 1164.73C1323.81 1171.13 1330.65 1178.94 1336.16 1188.16C1341.66 1197.31 1345.45 1207.76 1347.54 1219.51Z" fill="#A7A7A7"/>
<rect x="1667.33" y="843" width="826.667" height="837" stroke="#D5D6D8" stroke-width="12"/>
<path d="M2066.18 1376.6H1995.67V1148.11H2069.31C2091.47 1148.11 2110.44 1152.68 2126.21 1161.83C2141.98 1170.9 2154.06 1183.96 2162.47 1200.99C2170.87 1217.95 2175.07 1238.25 2175.07 1261.91C2175.07 1285.71 2170.83 1306.2 2162.36 1323.38C2153.88 1340.49 2141.53 1353.66 2125.31 1362.88C2109.1 1372.03 2089.39 1376.6 2066.18 1376.6ZM2023.34 1352.06H2064.4C2083.29 1352.06 2098.95 1348.41 2111.37 1341.12C2123.79 1333.83 2133.05 1323.46 2139.15 1309.99C2145.25 1296.53 2148.3 1280.5 2148.3 1261.91C2148.3 1243.46 2145.29 1227.58 2139.26 1214.27C2133.24 1200.88 2124.24 1190.61 2112.26 1183.47C2100.29 1176.26 2085.37 1172.65 2067.52 1172.65H2023.34V1352.06Z" fill="#A7A7A7"/>
</g>
<defs>
<clipPath id="clip0_116_295">
<rect width="2500" height="1686" fill="white"/>
</clipPath>
</defs>
</svg>
