<svg width="2500" height="1686" viewBox="0 0 2500 1686" fill="none" xmlns="http://www.w3.org/2000/svg">
<g clip-path="url(#clip0_116_258)">
<rect x="6" y="6" width="1666.67" height="1674" stroke="#D5D6D8" stroke-width="12"/>
<path d="M751.159 988H714.227L821.045 697.091H857.409L964.227 988H927.295L840.364 743.114H838.091L751.159 988ZM764.795 874.364H913.659V905.614H764.795V874.364Z" fill="#A7A7A7"/>
<rect x="1672.67" y="6" width="821.333" height="837" stroke="#D5D6D8" stroke-width="12"/>
<path d="M2008.67 539V310.504H2088.55C2104.47 310.504 2117.6 313.256 2127.94 318.76C2138.28 324.19 2145.98 331.517 2151.03 340.74C2156.09 349.888 2158.62 360.041 2158.62 371.198C2158.62 381.017 2156.87 389.124 2153.38 395.521C2149.95 401.917 2145.42 406.975 2139.76 410.694C2134.19 414.413 2128.12 417.165 2121.58 418.95V421.182C2128.57 421.628 2135.6 424.083 2142.67 428.545C2149.73 433.008 2155.64 439.405 2160.4 447.736C2165.17 456.066 2167.55 466.256 2167.55 478.306C2167.55 489.76 2164.94 500.062 2159.74 509.211C2154.53 518.36 2146.31 525.612 2135.08 530.967C2123.85 536.322 2109.23 539 2091.23 539H2008.67ZM2036.34 514.455H2091.23C2109.31 514.455 2122.14 510.959 2129.72 503.967C2137.38 496.901 2141.21 488.347 2141.21 478.306C2141.21 470.57 2139.24 463.43 2135.3 456.884C2131.36 450.264 2125.74 444.983 2118.45 441.041C2111.17 437.025 2102.54 435.017 2092.57 435.017H2036.34V514.455ZM2036.34 410.917H2087.66C2095.99 410.917 2103.5 409.281 2110.2 406.008C2116.97 402.736 2122.32 398.124 2126.26 392.174C2130.28 386.223 2132.29 379.231 2132.29 371.198C2132.29 361.157 2128.79 352.64 2121.8 345.649C2114.81 338.583 2103.73 335.05 2088.55 335.05H2036.34V410.917Z" fill="#A7A7A7"/>
<rect x="1672.67" y="843" width="821.333" height="837" stroke="#D5D6D8" stroke-width="12"/>
<path d="M2180.54 1219.51H2152.87C2151.23 1211.55 2148.37 1204.56 2144.28 1198.54C2140.26 1192.51 2135.35 1187.45 2129.55 1183.36C2123.82 1179.2 2117.46 1176.07 2110.47 1173.99C2103.48 1171.91 2096.19 1170.87 2088.6 1170.87C2074.77 1170.87 2062.24 1174.36 2051 1181.35C2039.85 1188.35 2030.96 1198.65 2024.34 1212.26C2017.79 1225.87 2014.52 1242.57 2014.52 1262.35C2014.52 1282.14 2017.79 1298.84 2024.34 1312.45C2030.96 1326.06 2039.85 1336.36 2051 1343.35C2062.24 1350.35 2074.77 1353.84 2088.6 1353.84C2096.19 1353.84 2103.48 1352.8 2110.47 1350.72C2117.46 1348.63 2123.82 1345.55 2129.55 1341.46C2135.35 1337.29 2140.26 1332.2 2144.28 1326.17C2148.37 1320.07 2151.23 1313.08 2152.87 1305.2H2180.54C2178.45 1316.87 2174.66 1327.32 2169.16 1336.55C2163.65 1345.77 2156.81 1353.62 2148.63 1360.09C2140.45 1366.49 2131.26 1371.36 2121.07 1374.7C2110.95 1378.05 2100.13 1379.73 2088.6 1379.73C2069.12 1379.73 2051.79 1374.97 2036.61 1365.44C2021.44 1355.92 2009.5 1342.39 2000.8 1324.83C1992.1 1307.28 1987.74 1286.45 1987.74 1262.35C1987.74 1238.25 1992.1 1217.43 2000.8 1199.87C2009.5 1182.32 2021.44 1168.78 2036.61 1159.26C2051.79 1149.74 2069.12 1144.98 2088.6 1144.98C2100.13 1144.98 2110.95 1146.66 2121.07 1150C2131.26 1153.35 2140.45 1158.26 2148.63 1164.73C2156.81 1171.13 2163.65 1178.94 2169.16 1188.16C2174.66 1197.31 2178.45 1207.76 2180.54 1219.51Z" fill="#A7A7A7"/>
</g>
<defs>
<clipPath id="clip0_116_258">
<rect width="2500" height="1686" fill="white"/>
</clipPath>
</defs>
</svg>
