<svg width="182" height="100" viewBox="0 0 182 100" fill="none" xmlns="http://www.w3.org/2000/svg">
<path fill-rule="evenodd" clip-rule="evenodd" d="M9.9324 0H171.897C174.612 0 177.091 1.11759 178.901 2.91986L178.909 2.91199C180.704 4.70642 181.821 7.19346 181.821 9.92453V90.0676C181.821 95.5374 177.367 99.9921 171.897 99.9921L9.93241 100C4.46261 100 0.00786938 95.5455 0.00786938 90.0755L0 9.92434C0 7.19327 1.11759 4.72211 2.91986 2.91966L2.91199 2.91179C4.7143 1.11736 7.19347 0 9.9324 0ZM24.5948 81.4265H27.3966C33.6928 81.4265 33.6928 71.8561 27.3966 71.8561H24.5948C18.2985 71.8561 18.2985 81.4265 24.5948 81.4265ZM154.417 81.4265H157.219C163.515 81.4265 163.515 71.8561 157.219 71.8561H154.417C148.121 71.8561 148.121 81.4265 154.417 81.4265ZM135.874 81.4265H138.676C144.972 81.4265 144.972 71.8561 138.676 71.8561H135.874C129.578 71.8561 129.578 81.4265 135.874 81.4265ZM43.1389 81.4265H45.9406C52.2369 81.4265 52.2369 71.8561 45.9406 71.8561H43.1389C36.8426 71.8561 36.8426 81.4265 43.1389 81.4265ZM24.5964 63.6631H27.3982C33.6944 63.6631 33.6944 54.0928 27.3982 54.0928H24.5964C18.3001 54.0928 18.3001 63.6631 24.5964 63.6631ZM154.419 63.6631H157.22C163.517 63.6631 163.517 54.0928 157.22 54.0928H154.419C148.122 54.0928 148.122 63.6631 154.419 63.6631ZM135.876 63.6631H138.678C144.974 63.6631 144.974 54.0928 138.678 54.0928H135.876C129.58 54.0928 129.58 63.6631 135.876 63.6631ZM117.334 63.6631H120.135C126.432 63.6631 126.432 54.0928 120.135 54.0928H117.334C111.029 54.0928 111.029 63.6631 117.334 63.6631ZM98.7832 63.6631H101.585C107.881 63.6631 107.881 54.0928 101.585 54.0928H98.7832C92.4869 54.0928 92.4869 63.6631 98.7832 63.6631ZM80.2329 63.6631H83.0347C89.3309 63.6631 89.3309 54.0928 83.0347 54.0928H80.2329C73.9366 54.0928 73.9366 63.6631 80.2329 63.6631ZM61.6904 63.6631H64.4922C70.7885 63.6631 70.7885 54.0928 64.4922 54.0928H61.6904C55.3941 54.0928 55.3941 63.6631 61.6904 63.6631ZM43.1401 63.6631H45.9419C52.2381 63.6631 52.2381 54.0928 45.9419 54.0928H43.1401C36.8438 54.0928 36.8438 63.6631 43.1401 63.6631ZM24.5976 45.9076H27.3994C33.6956 45.9076 33.6956 36.3373 27.3994 36.3373H24.5976C18.3013 36.3373 18.3013 45.9076 24.5976 45.9076ZM154.42 45.9076H157.222C163.518 45.9076 163.518 36.3373 157.222 36.3373H154.42C148.123 36.3373 148.123 45.9076 154.42 45.9076ZM135.877 45.9076H138.679C144.975 45.9076 144.975 36.3373 138.679 36.3373H135.877C129.581 36.3373 129.581 45.9076 135.877 45.9076ZM117.335 45.9076H120.137C126.433 45.9076 126.433 36.3373 120.137 36.3373H117.335C111.031 36.3373 111.031 45.9076 117.335 45.9076ZM98.7844 45.9076H101.586C107.882 45.9076 107.882 36.3373 101.586 36.3373H98.7844C92.4882 36.3373 92.4882 45.9076 98.7844 45.9076ZM80.2341 45.9076H83.0359C89.3322 45.9076 89.3322 36.3373 83.0359 36.3373H80.2341C73.9378 36.3373 73.9378 45.9076 80.2341 45.9076ZM61.6916 45.9076H64.4934C70.7897 45.9076 70.7897 36.3373 64.4934 36.3373H61.6916C55.3953 36.3373 55.3953 45.9076 61.6916 45.9076ZM43.1413 45.9076H45.9431C52.2393 45.9076 52.2393 36.3373 45.9431 36.3373H43.1413C36.845 36.3373 36.845 45.9076 43.1413 45.9076ZM24.5988 28.1443H27.4006C33.6969 28.1443 33.6969 18.5739 27.4006 18.5739H24.5988C18.3025 18.5739 18.3025 28.1443 24.5988 28.1443ZM154.421 28.1443H157.223C163.519 28.1443 163.519 18.5739 157.223 18.5739H154.421C148.125 18.5739 148.125 28.1443 154.421 28.1443ZM135.878 28.1443H138.68C144.977 28.1443 144.977 18.5739 138.68 18.5739H135.878C129.582 18.5739 129.582 28.1443 135.878 28.1443ZM117.336 28.1443H120.138C126.434 28.1443 126.434 18.5739 120.138 18.5739H117.336C111.032 18.5739 111.032 28.1443 117.336 28.1443ZM98.7856 28.1443H101.587C107.884 28.1443 107.884 18.5739 101.587 18.5739H98.7856C92.4894 18.5739 92.4894 28.1443 98.7856 28.1443ZM80.2353 28.1443H83.0371C89.3334 28.1443 89.3334 18.5739 83.0371 18.5739H80.2353C73.939 18.5739 73.939 28.1443 80.2353 28.1443ZM61.6928 28.1443H64.4946C70.7909 28.1443 70.7909 18.5739 64.4946 18.5739H61.6928C55.3965 18.5739 55.3965 28.1443 61.6928 28.1443ZM43.1425 28.1443H45.9443C52.2405 28.1443 52.2405 18.5739 45.9443 18.5739H43.1425C36.8462 18.5739 36.8462 28.1443 43.1425 28.1443ZM68.3034 81.4259H113.518C119.814 81.4259 119.814 71.8555 113.518 71.8555H68.3034C62.0071 71.8555 62.0071 81.4259 68.3034 81.4259ZM171.893 9.56974L9.66846 9.67205L9.67633 90.3269H172.136L172.144 9.68011L172.152 9.67224L171.893 9.56974Z" fill="black"/>
</svg>
