<svg width="2500" height="1330" viewBox="0 0 2500 1330" fill="none" xmlns="http://www.w3.org/2000/svg">
<rect x="6" y="6" width="2488" height="659" stroke="#D5D6D8" stroke-width="12"/>
<path d="M1181.04 450H1152.03L1235.93 221.504H1264.5L1348.4 450H1319.39L1251.11 257.653H1249.32L1181.04 450ZM1191.75 360.744H1308.68V385.289H1191.75V360.744Z" fill="#A7A7A7"/>
<rect x="6" y="665" width="826.667" height="659" stroke="#D5D6D8" stroke-width="12"/>
<path d="M344.669 1109.6V881.104H424.554C440.471 881.104 453.599 883.856 463.938 889.36C474.277 894.79 481.975 902.117 487.033 911.34C492.091 920.489 494.62 930.641 494.62 941.798C494.62 951.617 492.872 959.724 489.376 966.121C485.955 972.517 481.417 977.575 475.764 981.294C470.186 985.013 464.124 987.765 457.579 989.551V991.782C464.57 992.228 471.599 994.683 478.665 999.146C485.731 1003.61 491.645 1010.01 496.405 1018.34C501.165 1026.67 503.545 1036.86 503.545 1048.91C503.545 1060.36 500.942 1070.66 495.736 1079.81C490.529 1088.96 482.31 1096.21 471.079 1101.57C459.847 1106.92 445.231 1109.6 427.231 1109.6H344.669ZM372.339 1085.05H427.231C445.306 1085.05 458.136 1081.56 465.723 1074.57C473.384 1067.5 477.215 1058.95 477.215 1048.91C477.215 1041.17 475.244 1034.03 471.302 1027.48C467.36 1020.86 461.744 1015.58 454.455 1011.64C447.165 1007.62 438.537 1005.62 428.57 1005.62H372.339V1085.05ZM372.339 981.517H423.661C431.992 981.517 439.504 979.881 446.198 976.608C452.967 973.336 458.322 968.724 462.264 962.774C466.281 956.823 468.289 949.831 468.289 941.798C468.289 931.757 464.793 923.241 457.802 916.249C450.81 909.183 439.727 905.65 424.554 905.65H372.339V981.517Z" fill="#A7A7A7"/>
<rect x="836.667" y="665" width="826.667" height="659" stroke="#D5D6D8" stroke-width="12"/>
<path d="M1347.54 952.509H1319.87C1318.23 944.551 1315.37 937.559 1311.28 931.534C1307.26 925.509 1302.35 920.451 1296.55 916.36C1290.82 912.195 1284.46 909.071 1277.47 906.989C1270.48 904.906 1263.19 903.865 1255.6 903.865C1241.77 903.865 1229.24 907.36 1218 914.352C1206.85 921.344 1197.96 931.646 1191.34 945.257C1184.79 958.869 1181.52 975.567 1181.52 995.352C1181.52 1015.14 1184.79 1031.84 1191.34 1045.45C1197.96 1059.06 1206.85 1069.36 1218 1076.35C1229.24 1083.34 1241.77 1086.84 1255.6 1086.84C1263.19 1086.84 1270.48 1085.8 1277.47 1083.72C1284.46 1081.63 1290.82 1078.55 1296.55 1074.46C1302.35 1070.29 1307.26 1065.2 1311.28 1059.17C1315.37 1053.07 1318.23 1046.08 1319.87 1038.2H1347.54C1345.45 1049.87 1341.66 1060.32 1336.16 1069.55C1330.65 1078.77 1323.81 1086.62 1315.63 1093.09C1307.45 1099.48 1298.26 1104.36 1288.07 1107.7C1277.95 1111.05 1267.13 1112.72 1255.6 1112.72C1236.12 1112.72 1218.78 1107.96 1203.61 1098.44C1188.44 1088.92 1176.5 1075.39 1167.8 1057.83C1159.09 1040.28 1154.74 1019.45 1154.74 995.352C1154.74 971.253 1159.09 950.427 1167.8 932.873C1176.5 915.319 1188.44 901.782 1203.61 892.261C1218.78 882.741 1236.12 877.98 1255.6 877.98C1267.13 877.98 1277.95 879.654 1288.07 883.001C1298.26 886.348 1307.45 891.257 1315.63 897.728C1323.81 904.125 1330.65 911.935 1336.16 921.158C1341.66 930.307 1345.45 940.757 1347.54 952.509Z" fill="#A7A7A7"/>
<rect x="1667.33" y="665" width="826.667" height="659" stroke="#D5D6D8" stroke-width="12"/>
<path d="M2066.18 1109.6H1995.67V881.104H2069.31C2091.47 881.104 2110.44 885.679 2126.21 894.827C2141.98 903.902 2154.06 916.955 2162.47 933.989C2170.87 950.947 2175.07 971.253 2175.07 994.906C2175.07 1018.71 2170.83 1039.2 2162.36 1056.38C2153.88 1073.49 2141.53 1086.65 2125.31 1095.88C2109.1 1105.03 2089.39 1109.6 2066.18 1109.6ZM2023.34 1085.05H2064.4C2083.29 1085.05 2098.95 1081.41 2111.37 1074.12C2123.79 1066.83 2133.05 1056.46 2139.15 1042.99C2145.25 1029.53 2148.3 1013.5 2148.3 994.906C2148.3 976.46 2145.29 960.579 2139.26 947.265C2133.24 933.877 2124.24 923.612 2112.26 916.472C2100.29 909.257 2085.37 905.65 2067.52 905.65H2023.34V1085.05Z" fill="#A7A7A7"/>
</svg>
