<svg width="2500" height="1330" viewBox="0 0 2500 1330" fill="none" xmlns="http://www.w3.org/2000/svg">
<rect x="6" y="6" width="1244" height="1318" stroke="#D5D6D8" stroke-width="12"/>
<path d="M540.159 810H503.227L610.045 519.091H646.409L753.227 810H716.295L629.364 565.114H627.091L540.159 810ZM553.795 696.364H702.659V727.614H553.795V696.364Z" fill="#A7A7A7"/>
<rect x="1250" y="6" width="1244" height="1318" stroke="#D5D6D8" stroke-width="12"/>
<path d="M1777.23 810V519.091H1878.93C1899.2 519.091 1915.91 522.595 1929.07 529.602C1942.24 536.515 1952.04 545.843 1958.48 557.585C1964.92 569.233 1968.14 582.159 1968.14 596.364C1968.14 608.864 1965.91 619.186 1961.46 627.33C1957.1 635.473 1951.33 641.913 1944.13 646.648C1937.03 651.383 1929.31 654.886 1920.98 657.159V660C1929.88 660.568 1938.83 663.693 1947.82 669.375C1956.82 675.057 1964.35 683.201 1970.41 693.807C1976.47 704.413 1979.5 717.386 1979.5 732.727C1979.5 747.311 1976.19 760.426 1969.56 772.074C1962.93 783.722 1952.46 792.955 1938.16 799.773C1923.87 806.591 1905.26 810 1882.34 810H1777.23ZM1812.45 778.75H1882.34C1905.35 778.75 1921.69 774.299 1931.35 765.398C1941.1 756.402 1945.98 745.511 1945.98 732.727C1945.98 722.879 1943.47 713.788 1938.45 705.455C1933.43 697.027 1926.28 690.303 1917 685.284C1907.72 680.17 1896.73 677.614 1884.05 677.614H1812.45V778.75ZM1812.45 646.932H1877.8C1888.4 646.932 1897.97 644.848 1906.49 640.682C1915.11 636.515 1921.92 630.644 1926.94 623.068C1932.06 615.492 1934.61 606.591 1934.61 596.364C1934.61 583.58 1930.16 572.737 1921.26 563.835C1912.36 554.839 1898.25 550.341 1878.93 550.341H1812.45V646.932Z" fill="#A7A7A7"/>
</svg>
