<svg width="2500" height="1330" viewBox="0 0 2500 1330" fill="none" xmlns="http://www.w3.org/2000/svg">
<rect x="6" y="6" width="1666.67" height="1318" stroke="#D5D6D8" stroke-width="12"/>
<path d="M751.159 810H714.227L821.045 519.091H857.409L964.227 810H927.295L840.364 565.114H838.091L751.159 810ZM764.795 696.364H913.659V727.614H764.795V696.364Z" fill="#A7A7A7"/>
<rect x="1672.67" y="6" width="821.333" height="659" stroke="#D5D6D8" stroke-width="12"/>
<path d="M2008.67 450V221.504H2088.55C2104.47 221.504 2117.6 224.256 2127.94 229.76C2138.28 235.19 2145.98 242.517 2151.03 251.74C2156.09 260.888 2158.62 271.041 2158.62 282.198C2158.62 292.017 2156.87 300.124 2153.38 306.521C2149.95 312.917 2145.42 317.975 2139.76 321.694C2134.19 325.413 2128.12 328.165 2121.58 329.95V332.182C2128.57 332.628 2135.6 335.083 2142.67 339.545C2149.73 344.008 2155.64 350.405 2160.4 358.736C2165.17 367.066 2167.55 377.256 2167.55 389.306C2167.55 400.76 2164.94 411.062 2159.74 420.211C2154.53 429.36 2146.31 436.612 2135.08 441.967C2123.85 447.322 2109.23 450 2091.23 450H2008.67ZM2036.34 425.455H2091.23C2109.31 425.455 2122.14 421.959 2129.72 414.967C2137.38 407.901 2141.21 399.347 2141.21 389.306C2141.21 381.57 2139.24 374.43 2135.3 367.884C2131.36 361.264 2125.74 355.983 2118.45 352.041C2111.17 348.025 2102.54 346.017 2092.57 346.017H2036.34V425.455ZM2036.34 321.917H2087.66C2095.99 321.917 2103.5 320.281 2110.2 317.008C2116.97 313.736 2122.32 309.124 2126.26 303.174C2130.28 297.223 2132.29 290.231 2132.29 282.198C2132.29 272.157 2128.79 263.64 2121.8 256.649C2114.81 249.583 2103.73 246.05 2088.55 246.05H2036.34V321.917Z" fill="#A7A7A7"/>
<rect x="1672.67" y="665" width="821.333" height="659" stroke="#D5D6D8" stroke-width="12"/>
<path d="M2180.54 952.509H2152.87C2151.23 944.551 2148.37 937.559 2144.28 931.534C2140.26 925.509 2135.35 920.451 2129.55 916.36C2123.82 912.195 2117.46 909.071 2110.47 906.989C2103.48 904.906 2096.19 903.865 2088.6 903.865C2074.77 903.865 2062.24 907.36 2051 914.352C2039.85 921.344 2030.96 931.646 2024.34 945.257C2017.79 958.869 2014.52 975.567 2014.52 995.352C2014.52 1015.14 2017.79 1031.84 2024.34 1045.45C2030.96 1059.06 2039.85 1069.36 2051 1076.35C2062.24 1083.34 2074.77 1086.84 2088.6 1086.84C2096.19 1086.84 2103.48 1085.8 2110.47 1083.72C2117.46 1081.63 2123.82 1078.55 2129.55 1074.46C2135.35 1070.29 2140.26 1065.2 2144.28 1059.17C2148.37 1053.07 2151.23 1046.08 2152.87 1038.2H2180.54C2178.45 1049.87 2174.66 1060.32 2169.16 1069.55C2163.65 1078.77 2156.81 1086.62 2148.63 1093.09C2140.45 1099.48 2131.26 1104.36 2121.07 1107.7C2110.95 1111.05 2100.13 1112.72 2088.6 1112.72C2069.12 1112.72 2051.79 1107.96 2036.61 1098.44C2021.44 1088.92 2009.5 1075.39 2000.8 1057.83C1992.1 1040.28 1987.74 1019.45 1987.74 995.352C1987.74 971.253 1992.1 950.427 2000.8 932.873C2009.5 915.319 2021.44 901.782 2036.61 892.261C2051.79 882.741 2069.12 877.98 2088.6 877.98C2100.13 877.98 2110.95 879.654 2121.07 883.001C2131.26 886.348 2140.45 891.257 2148.63 897.728C2156.81 904.125 2163.65 911.935 2169.16 921.158C2174.66 930.307 2178.45 940.757 2180.54 952.509Z" fill="#A7A7A7"/>
</svg>
