<svg width="2500" height="1318" viewBox="0 0 2500 1318" fill="none" xmlns="http://www.w3.org/2000/svg">
<rect x="6" y="6" width="829.333" height="653" stroke="#D9D9D9" stroke-width="12"/>
<path d="M352.041 447H323.033L406.934 218.504H435.496L519.397 447H490.388L422.107 254.653H420.322L352.041 447ZM362.752 357.744H479.678V382.289H362.752V357.744Z" fill="#A7A7A7"/>
<rect x="835.333" y="6" width="829.333" height="653" stroke="#D9D9D9" stroke-width="12"/>
<path d="M1175.34 447V218.504H1255.22C1271.14 218.504 1284.27 221.256 1294.6 226.76C1304.94 232.19 1312.64 239.517 1317.7 248.74C1322.76 257.888 1325.29 268.041 1325.29 279.198C1325.29 289.017 1323.54 297.124 1320.04 303.521C1316.62 309.917 1312.08 314.975 1306.43 318.694C1300.85 322.413 1294.79 325.165 1288.25 326.95V329.182C1295.24 329.628 1302.27 332.083 1309.33 336.545C1316.4 341.008 1322.31 347.405 1327.07 355.736C1331.83 364.066 1334.21 374.256 1334.21 386.306C1334.21 397.76 1331.61 408.062 1326.4 417.211C1321.2 426.36 1312.98 433.612 1301.75 438.967C1290.51 444.322 1275.9 447 1257.9 447H1175.34ZM1203.01 422.455H1257.9C1275.97 422.455 1288.8 418.959 1296.39 411.967C1304.05 404.901 1307.88 396.347 1307.88 386.306C1307.88 378.57 1305.91 371.43 1301.97 364.884C1298.03 358.264 1292.41 352.983 1285.12 349.041C1277.83 345.025 1269.2 343.017 1259.24 343.017H1203.01V422.455ZM1203.01 318.917H1254.33C1262.66 318.917 1270.17 317.281 1276.87 314.008C1283.63 310.736 1288.99 306.124 1292.93 300.174C1296.95 294.223 1298.96 287.231 1298.96 279.198C1298.96 269.157 1295.46 260.64 1288.47 253.649C1281.48 246.583 1270.39 243.05 1255.22 243.05H1203.01V318.917Z" fill="#A7A7A7"/>
<rect x="1664.67" y="6" width="829.333" height="653" stroke="#D9D9D9" stroke-width="12"/>
<path d="M2176.87 289.909H2149.2C2147.57 281.95 2144.7 274.959 2140.61 268.934C2136.59 262.909 2131.68 257.851 2125.88 253.76C2120.16 249.595 2113.8 246.471 2106.8 244.388C2099.81 242.306 2092.52 241.264 2084.94 241.264C2071.1 241.264 2058.57 244.76 2047.34 251.752C2036.18 258.744 2027.29 269.045 2020.67 282.657C2014.13 296.269 2010.85 312.967 2010.85 332.752C2010.85 352.537 2014.13 369.236 2020.67 382.847C2027.29 396.459 2036.18 406.76 2047.34 413.752C2058.57 420.744 2071.1 424.24 2084.94 424.24C2092.52 424.24 2099.81 423.198 2106.8 421.116C2113.8 419.033 2120.16 415.946 2125.88 411.855C2131.68 407.69 2136.59 402.595 2140.61 396.57C2144.7 390.471 2147.57 383.479 2149.2 375.595H2176.87C2174.79 387.273 2170.99 397.723 2165.49 406.946C2159.99 416.169 2153.14 424.017 2144.96 430.488C2136.78 436.884 2127.59 441.756 2117.4 445.103C2107.29 448.45 2096.47 450.124 2084.94 450.124C2065.45 450.124 2048.12 445.364 2032.95 435.843C2017.77 426.322 2005.83 412.785 1997.13 395.231C1988.43 377.678 1984.08 356.851 1984.08 332.752C1984.08 308.653 1988.43 287.826 1997.13 270.273C2005.83 252.719 2017.77 239.182 2032.95 229.661C2048.12 220.14 2065.45 215.38 2084.94 215.38C2096.47 215.38 2107.29 217.054 2117.4 220.401C2127.59 223.748 2136.78 228.657 2144.96 235.128C2153.14 241.525 2159.99 249.335 2165.49 258.558C2170.99 267.707 2174.79 278.157 2176.87 289.909Z" fill="#A7A7A7"/>
<rect x="6" y="659" width="829.333" height="653" stroke="#D5D6D8" stroke-width="12"/>
<path d="M406.182 1100.6H335.669V872.104H409.306C431.471 872.104 450.438 876.679 466.207 885.827C481.975 894.902 494.062 907.955 502.467 924.989C510.872 941.947 515.074 962.253 515.074 985.906C515.074 1009.71 510.835 1030.2 502.355 1047.38C493.876 1064.49 481.529 1077.65 465.314 1086.88C449.099 1096.03 429.388 1100.6 406.182 1100.6ZM363.339 1076.05H404.397C423.289 1076.05 438.946 1072.41 451.368 1065.12C463.789 1057.83 473.05 1047.46 479.149 1033.99C485.248 1020.53 488.298 1004.5 488.298 985.906C488.298 967.46 485.285 951.579 479.26 938.265C473.236 924.877 464.236 914.612 452.26 907.472C440.285 900.257 425.372 896.65 407.521 896.65H363.339V1076.05Z" fill="#A7A7A7"/>
<rect x="835.333" y="659" width="829.333" height="653" stroke="#D5D6D8" stroke-width="12"/>
<path d="M1184.34 1100.6V872.104H1322.24V896.65H1212.01V973.856H1315.1V998.402H1212.01V1076.05H1324.02V1100.6H1184.34Z" fill="#A7A7A7"/>
<rect x="1664.67" y="659" width="829.333" height="653" stroke="#D5D6D8" stroke-width="12"/>
<path d="M2015 1100.6V872.104H2152.01V896.65H2042.67V973.856H2141.75V998.402H2042.67V1100.6H2015Z" fill="#A7A7A7"/>
</svg>
