<svg width="2500" height="1330" viewBox="0 0 2500 1330" fill="none" xmlns="http://www.w3.org/2000/svg">
<rect x="6" y="6" width="2488" height="659" stroke="#D5D6D8" stroke-width="12"/>
<path d="M1181.04 450H1152.03L1235.93 221.504H1264.5L1348.4 450H1319.39L1251.11 257.653H1249.32L1181.04 450ZM1191.75 360.744H1308.68V385.289H1191.75V360.744Z" fill="#A7A7A7"/>
<rect x="6" y="665" width="2488" height="659" stroke="#D5D6D8" stroke-width="12"/>
<path d="M1175.67 1109.6V881.104H1255.55C1271.47 881.104 1284.6 883.856 1294.94 889.36C1305.28 894.79 1312.98 902.117 1318.03 911.34C1323.09 920.489 1325.62 930.641 1325.62 941.798C1325.62 951.617 1323.87 959.724 1320.38 966.121C1316.95 972.517 1312.42 977.575 1306.76 981.294C1301.19 985.013 1295.12 987.765 1288.58 989.551V991.782C1295.57 992.228 1302.6 994.683 1309.67 999.146C1316.73 1003.61 1322.64 1010.01 1327.4 1018.34C1332.17 1026.67 1334.55 1036.86 1334.55 1048.91C1334.55 1060.36 1331.94 1070.66 1326.74 1079.81C1321.53 1088.96 1313.31 1096.21 1302.08 1101.57C1290.85 1106.92 1276.23 1109.6 1258.23 1109.6H1175.67ZM1203.34 1085.05H1258.23C1276.31 1085.05 1289.14 1081.56 1296.72 1074.57C1304.38 1067.5 1308.21 1058.95 1308.21 1048.91C1308.21 1041.17 1306.24 1034.03 1302.3 1027.48C1298.36 1020.86 1292.74 1015.58 1285.45 1011.64C1278.17 1007.62 1269.54 1005.62 1259.57 1005.62H1203.34V1085.05ZM1203.34 981.517H1254.66C1262.99 981.517 1270.5 979.881 1277.2 976.608C1283.97 973.336 1289.32 968.724 1293.26 962.774C1297.28 956.823 1299.29 949.831 1299.29 941.798C1299.29 931.757 1295.79 923.241 1288.8 916.249C1281.81 909.183 1270.73 905.65 1255.55 905.65H1203.34V981.517Z" fill="#A7A7A7"/>
</svg>
