<svg width="2500" height="1330" viewBox="0 0 2500 1330" fill="none" xmlns="http://www.w3.org/2000/svg">
<rect x="6" y="6" width="1244" height="659" stroke="#D5D6D8" stroke-width="12"/>
<path d="M559.041 450H530.033L613.934 221.504H642.496L726.397 450H697.388L629.107 257.653H627.322L559.041 450ZM569.752 360.744H686.678V385.289H569.752V360.744Z" fill="#A7A7A7"/>
<rect x="1250" y="6" width="1244" height="659" stroke="#D5D6D8" stroke-width="12"/>
<path d="M1797.67 450V221.504H1877.55C1893.47 221.504 1906.6 224.256 1916.94 229.76C1927.28 235.19 1934.98 242.517 1940.03 251.74C1945.09 260.888 1947.62 271.041 1947.62 282.198C1947.62 292.017 1945.87 300.124 1942.38 306.521C1938.95 312.917 1934.42 317.975 1928.76 321.694C1923.19 325.413 1917.12 328.165 1910.58 329.95V332.182C1917.57 332.628 1924.6 335.083 1931.67 339.545C1938.73 344.008 1944.64 350.405 1949.4 358.736C1954.17 367.066 1956.55 377.256 1956.55 389.306C1956.55 400.76 1953.94 411.062 1948.74 420.211C1943.53 429.36 1935.31 436.612 1924.08 441.967C1912.85 447.322 1898.23 450 1880.23 450H1797.67ZM1825.34 425.455H1880.23C1898.31 425.455 1911.14 421.959 1918.72 414.967C1926.38 407.901 1930.21 399.347 1930.21 389.306C1930.21 381.57 1928.24 374.43 1924.3 367.884C1920.36 361.264 1914.74 355.983 1907.45 352.041C1900.17 348.025 1891.54 346.017 1881.57 346.017H1825.34V425.455ZM1825.34 321.917H1876.66C1884.99 321.917 1892.5 320.281 1899.2 317.008C1905.97 313.736 1911.32 309.124 1915.26 303.174C1919.28 297.223 1921.29 290.231 1921.29 282.198C1921.29 272.157 1917.79 263.64 1910.8 256.649C1903.81 249.583 1892.73 246.05 1877.55 246.05H1825.34V321.917Z" fill="#A7A7A7"/>
<rect x="6" y="665" width="1244" height="659" stroke="#D5D6D8" stroke-width="12"/>
<path d="M725.537 952.509H697.868C696.231 944.551 693.368 937.559 689.277 931.534C685.26 925.509 680.351 920.451 674.55 916.36C668.822 912.195 662.463 909.071 655.471 906.989C648.479 904.906 641.19 903.865 633.603 903.865C619.769 903.865 607.236 907.36 596.004 914.352C584.847 921.344 575.959 931.646 569.339 945.257C562.793 958.869 559.521 975.567 559.521 995.352C559.521 1015.14 562.793 1031.84 569.339 1045.45C575.959 1059.06 584.847 1069.36 596.004 1076.35C607.236 1083.34 619.769 1086.84 633.603 1086.84C641.19 1086.84 648.479 1085.8 655.471 1083.72C662.463 1081.63 668.822 1078.55 674.55 1074.46C680.351 1070.29 685.26 1065.2 689.277 1059.17C693.368 1053.07 696.231 1046.08 697.868 1038.2H725.537C723.455 1049.87 719.661 1060.32 714.157 1069.55C708.653 1078.77 701.81 1086.62 693.628 1093.09C685.446 1099.48 676.26 1104.36 666.07 1107.7C655.955 1111.05 645.132 1112.72 633.603 1112.72C614.116 1112.72 596.785 1107.96 581.612 1098.44C566.438 1088.92 554.5 1075.39 545.798 1057.83C537.095 1040.28 532.744 1019.45 532.744 995.352C532.744 971.253 537.095 950.427 545.798 932.873C554.5 915.319 566.438 901.782 581.612 892.261C596.785 882.741 614.116 877.98 633.603 877.98C645.132 877.98 655.955 879.654 666.07 883.001C676.26 886.348 685.446 891.257 693.628 897.728C701.81 904.125 708.653 911.935 714.157 921.158C719.661 930.307 723.455 940.757 725.537 952.509Z" fill="#A7A7A7"/>
<rect x="1250" y="665" width="1244" height="659" stroke="#D5D6D8" stroke-width="12"/>
<path d="M1857.18 1109.6H1786.67V881.104H1860.31C1882.47 881.104 1901.44 885.679 1917.21 894.827C1932.98 903.902 1945.06 916.955 1953.47 933.989C1961.87 950.947 1966.07 971.253 1966.07 994.906C1966.07 1018.71 1961.83 1039.2 1953.36 1056.38C1944.88 1073.49 1932.53 1086.65 1916.31 1095.88C1900.1 1105.03 1880.39 1109.6 1857.18 1109.6ZM1814.34 1085.05H1855.4C1874.29 1085.05 1889.95 1081.41 1902.37 1074.12C1914.79 1066.83 1924.05 1056.46 1930.15 1042.99C1936.25 1029.53 1939.3 1013.5 1939.3 994.906C1939.3 976.46 1936.29 960.579 1930.26 947.265C1924.24 933.877 1915.24 923.612 1903.26 916.472C1891.29 909.257 1876.37 905.65 1858.52 905.65H1814.34V1085.05Z" fill="#A7A7A7"/>
</svg>
