<svg width="2500" height="368" viewBox="0 0 2500 368" fill="none" xmlns="http://www.w3.org/2000/svg">
<path d="M18 42C18 28.7452 28.7452 18 42 18H799.333C812.588 18 823.333 28.7452 823.333 42V358H18V42Z" stroke="#D9D9D9" stroke-width="12"/>
<path d="M847.333 42C847.333 28.7452 858.079 18 871.333 18H1628.67C1641.92 18 1652.67 28.7452 1652.67 42V358H847.333V42Z" stroke="#D9D9D9" stroke-width="12"/>
<path d="M1676.67 42C1676.67 28.7452 1687.41 18 1700.67 18H2458C2471.26 18 2482 28.7452 2482 42V358H1676.67V42Z" fill="#D9D9D9" fill-opacity="0.5"/>
<path d="M1676.67 42C1676.67 28.7452 1687.41 18 1700.67 18H2458C2471.26 18 2482 28.7452 2482 42V358H1676.67V42Z" stroke="#D9D9D9" stroke-width="12"/>
<rect y="352" width="2500" height="16" fill="#D9D9D9"/>
</svg>
