<svg width="2500" height="368" viewBox="0 0 2500 368" fill="none" xmlns="http://www.w3.org/2000/svg">
<path d="M18 42C18 28.7452 28.7452 18 42 18H1083.5C1096.75 18 1107.5 28.7452 1107.5 42V358H18V42Z" fill="#D9D9D9" fill-opacity="0.5"/>
<path d="M18 42C18 28.7452 28.7452 18 42 18H1083.5C1096.75 18 1107.5 28.7452 1107.5 42V358H18V42Z" stroke="#D9D9D9" stroke-width="12"/>
<path d="M1131.5 42C1131.5 28.7452 1142.25 18 1155.5 18H2197C2210.25 18 2221 28.7452 2221 42V358H1131.5V42Z" stroke="#D9D9D9" stroke-width="12"/>
<path d="M2245 42C2245 28.7452 2255.75 18 2269 18H2458C2471.25 18 2482 28.7452 2482 42V358H2245V42Z" stroke="#D9D9D9" stroke-width="12"/>
<path fill-rule="evenodd" clip-rule="evenodd" d="M2407.91 181.998C2410.95 185.037 2410.95 189.963 2407.91 193.002L2330.1 270.815C2327.06 273.853 2322.13 273.853 2319.09 270.815C2316.05 267.776 2316.05 262.849 2319.09 259.81L2391.4 187.5L2319.09 115.19C2316.05 112.151 2316.05 107.224 2319.09 104.185C2322.13 101.147 2327.06 101.147 2330.1 104.185L2407.91 181.998Z" fill="#A7A7A7"/>
<rect y="352" width="2500" height="16" fill="#D9D9D9"/>
</svg>
