<svg width="2500" height="368" viewBox="0 0 2500 368" fill="none" xmlns="http://www.w3.org/2000/svg">
<path d="M255 42C255 28.7452 244.255 18 231 18H42C28.7452 18 18 28.7452 18 42V358H255V42Z" stroke="#D9D9D9" stroke-width="12"/>
<path fill-rule="evenodd" clip-rule="evenodd" d="M92.0916 181.998C89.0528 185.037 89.0528 189.963 92.0916 193.002L169.904 270.815C172.943 273.853 177.87 273.853 180.908 270.815C183.947 267.776 183.947 262.849 180.908 259.81L108.598 187.5L180.908 115.19C183.947 112.151 183.947 107.224 180.908 104.185C177.87 101.147 172.943 101.147 169.904 104.185L92.0916 181.998Z" fill="#A7A7A7"/>
<path d="M279 42C279 28.7452 289.745 18 303 18H1214C1227.25 18 1238 28.7452 1238 42V358H279V42Z" stroke="#D9D9D9" stroke-width="12"/>
<path d="M1262 42C1262 28.7452 1272.75 18 1286 18H2197C2210.25 18 2221 28.7452 2221 42V358H1262V42Z" fill="#D9D9D9" fill-opacity="0.5"/>
<path d="M1262 42C1262 28.7452 1272.75 18 1286 18H2197C2210.25 18 2221 28.7452 2221 42V358H1262V42Z" stroke="#D9D9D9" stroke-width="12"/>
<path d="M2245 42C2245 28.7452 2255.75 18 2269 18H2458C2471.25 18 2482 28.7452 2482 42V358H2245V42Z" stroke="#D9D9D9" stroke-width="12"/>
<path fill-rule="evenodd" clip-rule="evenodd" d="M2407.91 181.998C2410.95 185.037 2410.95 189.963 2407.91 193.002L2330.1 270.815C2327.06 273.853 2322.13 273.853 2319.09 270.815C2316.05 267.776 2316.05 262.849 2319.09 259.81L2391.4 187.5L2319.09 115.19C2316.05 112.151 2316.05 107.224 2319.09 104.185C2322.13 101.147 2327.06 101.147 2330.1 104.185L2407.91 181.998Z" fill="#A7A7A7"/>
<rect y="352" width="2500" height="16" fill="#D9D9D9"/>
</svg>
