<svg width="10714" height="1686" viewBox="0 0 10714 1686" fill="none" xmlns="http://www.w3.org/2000/svg">
<g clip-path="url(#clip0_96_411)">
<path d="M42 18H1083.5C1096.75 18 1107.5 28.7452 1107.5 42V358H18V42C18 28.7452 28.7452 18 42 18Z" fill="#D9D9D9" fill-opacity="0.5"/>
<path d="M42 18H1083.5C1096.75 18 1107.5 28.7452 1107.5 42V358H18V42C18 28.7452 28.7452 18 42 18Z" stroke="#D9D9D9" stroke-width="12"/>
<path d="M1155.5 18H2197C2210.25 18 2221 28.7452 2221 42V358H1131.5V42C1131.5 28.7452 1142.25 18 1155.5 18Z" stroke="#D9D9D9" stroke-width="12"/>
<path d="M2269 18H2458C2471.25 18 2482 28.7452 2482 42V358H2245V42C2245 28.7452 2255.75 18 2269 18Z" stroke="#D9D9D9" stroke-width="12"/>
<path fill-rule="evenodd" clip-rule="evenodd" d="M2407.91 181.998C2410.95 185.037 2410.95 189.963 2407.91 193.002L2330.1 270.815C2327.06 273.853 2322.13 273.853 2319.09 270.815C2316.05 267.776 2316.05 262.849 2319.09 259.81L2391.4 187.5L2319.09 115.19C2316.05 112.151 2316.05 107.224 2319.09 104.185C2322.13 101.147 2327.06 101.147 2330.1 104.185L2407.91 181.998Z" fill="#A7A7A7"/>
<rect y="352" width="2500" height="16" fill="#D9D9D9"/>
<rect x="6" y="374" width="2488" height="1306" stroke="#D5D6D8" stroke-width="12"/>
</g>
<g clip-path="url(#clip1_96_411)">
<path d="M2780 18H3821.5C3834.75 18 3845.5 28.7452 3845.5 42V358H2756V42C2756 28.7452 2766.75 18 2780 18Z" stroke="#D9D9D9" stroke-width="12"/>
<path d="M3893.5 18H4935C4948.25 18 4959 28.7452 4959 42V358H3869.5V42C3869.5 28.7452 3880.25 18 3893.5 18Z" fill="#D9D9D9" fill-opacity="0.5"/>
<path d="M3893.5 18H4935C4948.25 18 4959 28.7452 4959 42V358H3869.5V42C3869.5 28.7452 3880.25 18 3893.5 18Z" stroke="#D9D9D9" stroke-width="12"/>
<path d="M5007 18H5196C5209.25 18 5220 28.7452 5220 42V358H4983V42C4983 28.7452 4993.75 18 5007 18Z" stroke="#D9D9D9" stroke-width="12"/>
<path fill-rule="evenodd" clip-rule="evenodd" d="M5145.91 181.998C5148.95 185.037 5148.95 189.963 5145.91 193.002L5068.1 270.815C5065.06 273.853 5060.13 273.853 5057.09 270.815C5054.05 267.776 5054.05 262.849 5057.09 259.81L5129.4 187.5L5057.09 115.19C5054.05 112.151 5054.05 107.224 5057.09 104.185C5060.13 101.147 5065.06 101.147 5068.1 104.185L5145.91 181.998Z" fill="#A7A7A7"/>
<rect x="2738" y="352" width="2500" height="16" fill="#D9D9D9"/>
<rect x="2744" y="374" width="2488" height="1306" stroke="#D5D6D8" stroke-width="12"/>
</g>
<g clip-path="url(#clip2_96_411)">
<path d="M5707 18H5518C5504.75 18 5494 28.7452 5494 42V358H5731V42C5731 28.7452 5720.25 18 5707 18Z" stroke="#D9D9D9" stroke-width="12"/>
<path fill-rule="evenodd" clip-rule="evenodd" d="M5568.09 181.998C5565.05 185.037 5565.05 189.963 5568.09 193.002L5645.9 270.815C5648.94 273.853 5653.87 273.853 5656.91 270.815C5659.95 267.776 5659.95 262.849 5656.91 259.81L5584.6 187.5L5656.91 115.19C5659.95 112.151 5659.95 107.224 5656.91 104.185C5653.87 101.147 5648.94 101.147 5645.9 104.185L5568.09 181.998Z" fill="#A7A7A7"/>
<path d="M5779 18H6690C6703.25 18 6714 28.7452 6714 42V358H5755V42C5755 28.7452 5765.75 18 5779 18Z" fill="#D9D9D9" fill-opacity="0.5"/>
<path d="M5779 18H6690C6703.25 18 6714 28.7452 6714 42V358H5755V42C5755 28.7452 5765.75 18 5779 18Z" stroke="#D9D9D9" stroke-width="12"/>
<path d="M6762 18H7673C7686.25 18 7697 28.7452 7697 42V358H6738V42C6738 28.7452 6748.75 18 6762 18Z" stroke="#D9D9D9" stroke-width="12"/>
<path d="M7745 18H7934C7947.25 18 7958 28.7452 7958 42V358H7721V42C7721 28.7452 7731.75 18 7745 18Z" stroke="#D9D9D9" stroke-width="12"/>
<path fill-rule="evenodd" clip-rule="evenodd" d="M7883.91 181.998C7886.95 185.037 7886.95 189.963 7883.91 193.002L7806.1 270.815C7803.06 273.853 7798.13 273.853 7795.09 270.815C7792.05 267.776 7792.05 262.849 7795.09 259.81L7867.4 187.5L7795.09 115.19C7792.05 112.151 7792.05 107.224 7795.09 104.185C7798.13 101.147 7803.06 101.147 7806.1 104.185L7883.91 181.998Z" fill="#A7A7A7"/>
<rect x="5476" y="352" width="2500" height="16" fill="#D9D9D9"/>
<rect x="5482" y="374" width="2488" height="1306" stroke="#D5D6D8" stroke-width="12"/>
</g>
<g clip-path="url(#clip3_96_411)">
<path d="M8445 18H8256C8242.75 18 8232 28.7452 8232 42V358H8469V42C8469 28.7452 8458.25 18 8445 18Z" stroke="#D9D9D9" stroke-width="12"/>
<path fill-rule="evenodd" clip-rule="evenodd" d="M8306.09 181.998C8303.05 185.037 8303.05 189.963 8306.09 193.002L8383.9 270.815C8386.94 273.853 8391.87 273.853 8394.91 270.815C8397.95 267.776 8397.95 262.849 8394.91 259.81L8322.6 187.5L8394.91 115.19C8397.95 112.151 8397.95 107.224 8394.91 104.185C8391.87 101.147 8386.94 101.147 8383.9 104.185L8306.09 181.998Z" fill="#A7A7A7"/>
<path d="M8517 18H9428C9441.25 18 9452 28.7452 9452 42V358H8493V42C8493 28.7452 8503.75 18 8517 18Z" stroke="#D9D9D9" stroke-width="12"/>
<path d="M9500 18H10411C10424.3 18 10435 28.7452 10435 42V358H9476V42C9476 28.7452 9486.75 18 9500 18Z" fill="#D9D9D9" fill-opacity="0.5"/>
<path d="M9500 18H10411C10424.3 18 10435 28.7452 10435 42V358H9476V42C9476 28.7452 9486.75 18 9500 18Z" stroke="#D9D9D9" stroke-width="12"/>
<path d="M10483 18H10672C10685.3 18 10696 28.7452 10696 42V358H10459V42C10459 28.7452 10469.7 18 10483 18Z" stroke="#D9D9D9" stroke-width="12"/>
<path fill-rule="evenodd" clip-rule="evenodd" d="M10621.9 181.998C10624.9 185.037 10624.9 189.963 10621.9 193.002L10544.1 270.815C10541.1 273.853 10536.1 273.853 10533.1 270.815C10530.1 267.776 10530.1 262.849 10533.1 259.81L10605.4 187.5L10533.1 115.19C10530.1 112.151 10530.1 107.224 10533.1 104.185C10536.1 101.147 10541.1 101.147 10544.1 104.185L10621.9 181.998Z" fill="#A7A7A7"/>
<rect x="8214" y="352" width="2500" height="16" fill="#D9D9D9"/>
<rect x="8220" y="374" width="2488" height="1306" stroke="#D5D6D8" stroke-width="12"/>
</g>
<defs>
<clipPath id="clip0_96_411">
<rect width="2500" height="1686" fill="white"/>
</clipPath>
<clipPath id="clip1_96_411">
<rect width="2500" height="1686" fill="white" transform="translate(2738)"/>
</clipPath>
<clipPath id="clip2_96_411">
<rect width="2500" height="1686" fill="white" transform="translate(5476)"/>
</clipPath>
<clipPath id="clip3_96_411">
<rect width="2500" height="1686" fill="white" transform="translate(8214)"/>
</clipPath>
</defs>
</svg>
